<?xml version="1.0" encoding="UTF-8"?>
<svg id="Layer_2" data-name="Layer 2" xmlns="http://www.w3.org/2000/svg" viewBox="0 0 212.22 261.59">
  <defs>
    <style>
      .cls-1 {
        fill: #aa5efe;
      }
    </style>
  </defs>
  <g id="Layer_5" data-name="Layer 5">
    <g>
      <g>
        <g>
          <path class="cls-1" d="M71.67,156.69l-.19,2.66-1.6,22.72,1.66-22.72,.2-2.66h-.06Z"/>
          <path class="cls-1" d="M212.22,37.95c0,1.24-.18,5.16-.55,11.79-.37,6.63-.92,14.99-1.66,25.06-.74,10.08-1.53,21.31-2.39,33.71-.3,4.3-.6,8.65-.9,13.03-.05-.06-.11-.13-.17-.19-3.59-3.86-9.79-11.23-18.97-22.5-4.79-5.89-10.01-12.39-15.95-19.84-2.06-2.59-5.09-4.15-8.32-4.27-.14,0-.29-.01-.43-.01-3.06,0-6.04,1.32-8.15,3.6l-3.02,3.24c-.36,.39-.56,.9-.56,1.44v13.51c0,1.16-.94,2.11-2.11,2.11h-5.09c-1.22,0-2.19-1.04-2.1-2.26,.63-8.95,1.3-17.74,2.02-26.35,.86-10.32,1.6-19.77,2.21-28.37,.61-8.59,1.11-16.03,1.48-22.29,.37-6.27,.55-10.87,.55-13.82,0-3.69,1.97-5.53,5.9-5.53h20.26c14.98,0,25.06,3.19,30.21,9.58,5.16,6.39,7.74,15.84,7.74,28.37Z"/>
          <path class="cls-1" d="M201.34,145.06c1.32-1.54,3.83-.51,3.7,1.51,0,.02,0,.04,0,.06-.86,13.02-1.72,25.73-2.58,38.13-.86,12.41-1.66,23.65-2.4,33.71-.74,10.07-1.35,18.48-1.84,25.24-.5,6.76-.86,10.87-1.1,12.34-.25,1.97-.74,3.38-1.48,4.24-.74,.86-2.21,1.29-4.42,1.29h-20.26c-13.76,0-23.58-2.7-29.47-8.11-5.9-5.4-8.84-13.13-8.84-23.21,0-5.4,.49-14.98,1.48-28.74,.85-12.08,1.81-25.49,2.87-40.22,.08-1.1,1-1.96,2.1-1.96h9.96c1.16,0,2.11,.94,2.11,2.11v16.12c0,.55,.22,1.09,.61,1.48l1.69,1.72c2.51,2.55,5.82,3.96,9.32,3.96,.16,0,.32,0,.47-.01,3.8-.13,7.37-1.96,9.81-5.01,5.5-6.9,10.26-12.81,14.52-18.06,5.64-6.93,10.24-12.48,13.76-16.6Z"/>
          <path class="cls-1" d="M162.64,176.75c-1,.02-1.96-.27-2.81-.82-.58-.38-.91-1.04-.91-1.74v-22.82h.22v22.83c0,.69,.32,1.34,.89,1.72,.79,.52,1.68,.81,2.61,.84Z"/>
          <path class="cls-1" d="M162.82,82.72c-.84,.01-1.62,.38-2.24,1.04l-.87,.94c-.36,.39-.56,.9-.56,1.44v20.47h-.22v-20.47c0-.53,.2-1.05,.56-1.44l.87-.94c.66-.71,1.52-1.09,2.42-1.05,.01,0,.02,0,.03,0Z"/>
        </g>
        <path class="cls-1" d="M75.56,101.27l-.03,.42h.02l.03-.42h-.02Z"/>
        <path class="cls-1" d="M76.3,91.07l-.53,7.54-.19,2.66-.03,.42h-.02l.03-.42c.06-.9,.13-1.78,.2-2.66,.18-2.57,.36-5.09,.54-7.54Z"/>
      </g>
      <g>
        <polygon class="cls-1" points="71.73 156.69 71.53 159.36 71.48 159.36 71.67 156.69 71.73 156.69"/>
        <path class="cls-1" d="M75.77,98.61l-.19,2.66-.03,.42h-.02l.03-.42c.06-.9,.13-1.78,.2-2.66h.01Z"/>
        <path class="cls-1" d="M162.64,176.75c-1.38,.03-2.69-.53-3.72-1.58v-23.81h.22v23.81c.98,.99,2.2,1.55,3.5,1.58Z"/>
        <path class="cls-1" d="M162.82,82.72c-.84,.01-1.62,.38-2.24,1.04l-1.44,1.55v21.3h-.22v-21.3l1.44-1.55c.66-.71,1.52-1.09,2.42-1.05,.01,0,.02,0,.03,0Z"/>
        <path class="cls-1" d="M202.29,130.25v.1c.04,1.06-.48,2.16-1.6,3.37-3.65,3.94-10.15,11.65-19.31,22.9-4.36,5.37-9.13,11.3-14.57,18.11-1,1.25-2.36,1.96-3.85,2.01-.1,0-.21,0-.31,0,.03,0,.06,0,.09,0,1.49-.05,2.86-.77,3.85-2.01,5.44-6.82,10.21-12.75,14.57-18.11,9.16-11.26,15.66-18.96,19.31-22.9,1.12-1.21,1.65-2.31,1.61-3.37v-.1s0-.1,0-.1c.04-1.04-.51-2.18-1.61-3.37-3.69-3.97-10.01-11.47-19.31-22.9-4.69-5.78-9.93-12.29-16.01-19.91-.61-.77-1.43-1.21-2.33-1.25,.06-.01,.12,0,.19,0,.91,.03,1.75,.48,2.37,1.26,6.08,7.62,11.32,14.13,16.01,19.91,9.3,11.43,15.62,18.92,19.31,22.9,1.1,1.19,1.65,2.33,1.61,3.37v.1Z"/>
        <path class="cls-1" d="M202.08,130.25v.1c.04,1.06-.48,2.16-1.6,3.37-3.65,3.94-10.15,11.65-19.31,22.9-4.36,5.37-9.13,11.3-14.57,18.11-1,1.25-2.36,1.96-3.85,2.01-.03,0-.06,0-.09,0-1.3-.03-2.53-.59-3.5-1.58v-23.81H72.04l-.19,2.66-.19,2.66-.19,2.66-1.6,22.72-5.4,73.98c-.25,1.97-.74,3.38-1.48,4.24-.74,.86-2.21,1.29-4.42,1.29h-20.26c-13.76,0-23.58-2.7-29.48-8.11-5.89-5.4-8.84-13.13-8.84-23.21,0-4.91,.37-13.32,1.1-25.24,.74-11.91,1.72-25.48,2.95-40.72,1.23-15.23,2.46-31.32,3.69-48.27,1.23-16.95,2.45-32.91,3.68-47.9,1.23-14.98,2.21-28.12,2.95-39.42,.74-11.3,1.1-19.04,1.1-23.21,0-3.69,1.97-5.53,5.9-5.53h20.26c14.98,0,25.06,3.19,30.21,9.58s7.74,15.84,7.74,28.37c0,1.97-.37,8.91-1.11,20.82-.44,7.12-.97,15.1-1.58,23.94l-.19,2.61c-.1,1.41-.2,2.84-.3,4.29l-.1,1.46c-.18,2.45-.36,4.97-.54,7.54-.07,.88-.13,1.77-.2,2.66l-.03,.42h.02l-.15,2.25-.19,2.66h83.94v-21.3l1.44-1.55c.61-.67,1.4-1.03,2.24-1.04,.9,.04,1.72,.48,2.33,1.25,6.08,7.62,11.32,14.13,16.01,19.91,9.3,11.43,15.62,18.92,19.31,22.9,1.1,1.19,1.65,2.33,1.61,3.37v.1Z"/>
        <path class="cls-1" d="M202.29,130.25v.1c.04,1.06-.48,2.16-1.6,3.37-3.65,3.94-10.15,11.65-19.31,22.9-4.36,5.37-9.13,11.3-14.57,18.11-1,1.25-2.36,1.96-3.85,2.01-.1,0-.21,0-.31,0,.03,0,.06,0,.09,0,1.49-.05,2.86-.77,3.85-2.01,5.44-6.82,10.21-12.75,14.57-18.11,9.16-11.26,15.66-18.96,19.31-22.9,1.12-1.21,1.65-2.31,1.61-3.37v-.1s0-.1,0-.1c.04-1.04-.51-2.18-1.61-3.37-3.69-3.97-10.01-11.47-19.31-22.9-4.69-5.78-9.93-12.29-16.01-19.91-.61-.77-1.43-1.21-2.33-1.25,.06-.01,.12,0,.19,0,.91,.03,1.75,.48,2.37,1.26,6.08,7.62,11.32,14.13,16.01,19.91,9.3,11.43,15.62,18.92,19.31,22.9,1.1,1.19,1.65,2.33,1.61,3.37v.1Z"/>
      </g>
    </g>
  </g>
</svg>