<?xml version="1.0" encoding="UTF-8"?>
<svg id="Layer_2" data-name="Layer 2" xmlns="http://www.w3.org/2000/svg" viewBox="0 0 500 500">
  <defs>
    <style>
      .cls-1 {
        fill: #fff;
      }

      .cls-2 {
        fill: #aa5efe;
      }

      .cls-3 {
        opacity: .2;
      }
    </style>
  </defs>
  <g id="Layer_5" data-name="Layer 5">
    <rect class="cls-2" width="500" height="500"/>
    <g class="cls-3">
      <g>
        <g>
          <path class="cls-1" d="M28.28,17.12l-.03,.39-.09,1.32,.1-1.32,.03-.39h0Z"/>
          <path class="cls-1" d="M28.95,7.61l-.08,1.09-.03,.39v.06h0v-.06c.01-.13,.02-.26,.03-.39,.03-.37,.05-.74,.08-1.09Z"/>
        </g>
        <g>
          <polygon class="cls-1" points="28.29 17.12 28.26 17.51 28.25 17.51 28.28 17.12 28.29 17.12"/>
          <path class="cls-1" d="M28.87,8.7l-.03,.39v.06h0v-.06c.01-.13,.02-.26,.03-.39h0Z"/>
          <path class="cls-1" d="M29.43,0c-.01,.37-.06,1.35-.16,2.93-.02,.3-.04,.61-.06,.93l-.34,4.84-.03,.45-.56,7.97-.03,.39-.09,1.32-.32,4.52v.06s-.6,8.12-.6,8.12c-.04,.28-.11,.49-.21,.61-.11,.13-.33,.19-.65,.19h-2.93c-2,0-3.42-.39-4.28-1.18-.85-.78-1.28-1.9-1.28-3.36,0-.71,.05-1.93,.16-3.66,.11-1.73,.25-3.69,.43-5.9s.35-4.54,.53-7c.18-2.46,.36-4.77,.54-6.94,.12-1.57,.24-3,.33-4.29h9.55Z"/>
        </g>
      </g>
      <g>
        <g>
          <path class="cls-1" d="M12.33,40.32l-.02,.38-.24,3.3,.25-3.3,.02-.38h-.01Z"/>
          <path class="cls-1" d="M12.89,32.34h.01v0Z"/>
          <path class="cls-1" d="M13.01,30.8l-.08,1.09-.03,.39v.06h0v-.06c.01-.13,.02-.26,.03-.39,.03-.37,.05-.74,.08-1.09Z"/>
        </g>
        <g>
          <polygon class="cls-1" points="12.34 40.32 12.31 40.7 12.31 40.7 12.33 40.32 12.34 40.32"/>
          <path class="cls-1" d="M12.93,31.9l-.03,.39v.06h0v-.06c.01-.13,.02-.26,.03-.39h0Z"/>
          <path class="cls-1" d="M12.36,18.99c.75,.93,1.12,2.3,1.12,4.11,0,.29-.05,1.29-.16,3.02-.02,.3-.04,.61-.06,.93l-1.37,19.5v.05s-.6,8.12-.6,8.12c-.04,.29-.11,.49-.21,.61-.11,.13-.32,.19-.64,.19h-2.94c-1.99,0-3.42-.39-4.27-1.18-.85-.78-1.28-1.9-1.28-3.36,0-.71,.05-1.93,.16-3.66,.11-1.73,.25-3.7,.43-5.9,.18-2.21,.36-4.54,.53-7s.36-4.77,.53-6.94c.18-2.17,.32-4.08,.43-5.71s.16-2.76,.16-3.36c0-.53,.28-.8,.86-.8h2.94c2.17,0,3.63,.46,4.38,1.39Z"/>
        </g>
      </g>
      <path class="cls-1" d="M11.9,0V.16s-.02,.05-.02,.05l-.59,8.12c-.04,.29-.11,.49-.21,.62-.11,.12-.32,.18-.64,.18h-2.94c-2,0-3.42-.39-4.28-1.17-.85-.78-1.28-1.91-1.28-3.37,0-.71,.06-1.93,.16-3.65,.02-.31,.04-.62,.06-.94H11.9Z"/>
    </g>
    <g class="cls-3">
      <g>
        <g>
          <path class="cls-1" d="M245.47,17.12l-.03,.39-.09,1.32,.1-1.32,.03-.39h-.01Z"/>
          <path class="cls-1" d="M246.14,7.61l-.08,1.09-.03,.39v.06h0v-.06c.01-.13,.02-.26,.03-.39,.03-.37,.05-.74,.08-1.09Z"/>
        </g>
        <g>
          <polygon class="cls-1" points="245.48 17.12 245.45 17.51 245.44 17.51 245.47 17.12 245.48 17.12"/>
          <path class="cls-1" d="M246.06,8.7l-.03,.39v.06h0v-.06c.01-.13,.02-.26,.03-.39h0Z"/>
          <path class="cls-1" d="M246.62,0c-.01,.37-.06,1.35-.16,2.93-.02,.3-.04,.61-.06,.93l-.26,3.75-.08,1.09-.03,.45-.56,7.97-.03,.39-.09,1.32-.32,4.52v.06s-.6,8.12-.6,8.12c-.04,.28-.11,.49-.21,.61-.11,.13-.33,.19-.65,.19h-2.93c-2,0-3.42-.39-4.28-1.18-.85-.78-1.28-1.9-1.28-3.36,0-.71,.05-1.93,.16-3.66,.11-1.73,.25-3.69,.43-5.9s.35-4.54,.53-7c.18-2.46,.36-4.77,.54-6.94,.12-1.57,.24-3,.33-4.29h9.55Z"/>
        </g>
      </g>
      <g>
        <g>
          <path class="cls-1" d="M278.28,17.12l-.03,.39-.09,1.32,.1-1.32,.03-.39h0Z"/>
          <path class="cls-1" d="M278.95,7.61l-.08,1.09-.03,.39v.06h0v-.06c.01-.13,.02-.26,.03-.39,.03-.37,.05-.74,.08-1.09Z"/>
        </g>
        <g>
          <polygon class="cls-1" points="278.29 17.12 278.26 17.51 278.25 17.51 278.28 17.12 278.29 17.12"/>
          <path class="cls-1" d="M278.87,8.7l-.03,.39v.06h0v-.06c.01-.13,.02-.26,.03-.39h0Z"/>
          <path class="cls-1" d="M279.43,0c-.01,.37-.06,1.35-.16,2.93-.02,.3-.04,.61-.06,.93l-.34,4.84-.03,.45-.56,7.97-.03,.39-.09,1.32-.32,4.52v.06s-.6,8.12-.6,8.12c-.04,.28-.11,.49-.21,.61-.11,.13-.33,.19-.65,.19h-2.93c-2,0-3.42-.39-4.28-1.18-.85-.78-1.28-1.9-1.28-3.36,0-.71,.05-1.93,.16-3.66,.11-1.73,.25-3.69,.43-5.9s.35-4.54,.53-7c.18-2.46,.36-4.77,.54-6.94,.12-1.57,.24-3,.33-4.29h9.55Z"/>
        </g>
      </g>
      <g>
        <g>
          <path class="cls-1" d="M262.33,40.32l-.02,.38-.24,3.3,.25-3.3,.02-.38h-.01Z"/>
          <path class="cls-1" d="M262.89,32.34h.01v0Z"/>
          <path class="cls-1" d="M263.01,30.8l-.08,1.09-.03,.39v.06h0v-.06c.01-.13,.02-.26,.03-.39,.03-.37,.05-.74,.08-1.09Z"/>
        </g>
        <g>
          <polygon class="cls-1" points="262.34 40.32 262.31 40.7 262.31 40.7 262.33 40.32 262.34 40.32"/>
          <path class="cls-1" d="M262.93,31.9l-.03,.39v.06h0v-.06c.01-.13,.02-.26,.03-.39h0Z"/>
          <path class="cls-1" d="M262.36,18.99c.75,.93,1.12,2.3,1.12,4.11,0,.29-.05,1.29-.16,3.02-.02,.3-.04,.61-.06,.93l-1.37,19.5v.05s-.6,8.12-.6,8.12c-.04,.29-.11,.49-.21,.61-.11,.13-.32,.19-.64,.19h-2.94c-1.99,0-3.42-.39-4.27-1.18-.85-.78-1.28-1.9-1.28-3.36,0-.71,.05-1.93,.16-3.66,.11-1.73,.25-3.7,.43-5.9,.18-2.21,.36-4.54,.53-7s.36-4.77,.53-6.94c.18-2.17,.32-4.08,.43-5.71s.16-2.76,.16-3.36c0-.53,.28-.8,.86-.8h2.94c2.17,0,3.63,.46,4.38,1.39Z"/>
        </g>
      </g>
      <path class="cls-1" d="M261.9,0V.16s-.02,.05-.02,.05l-.59,8.12c-.04,.29-.11,.49-.21,.62-.11,.12-.32,.18-.64,.18h-2.94c-2,0-3.42-.39-4.28-1.17-.85-.78-1.28-1.91-1.28-3.37,0-.71,.06-1.93,.16-3.65,.02-.31,.04-.62,.06-.94h9.74Z"/>
    </g>
    <g class="cls-3">
      <g>
        <g>
          <path class="cls-1" d="M495.47,17.12l-.03,.39-.09,1.32,.1-1.32,.03-.39h0Z"/>
          <path class="cls-1" d="M496.14,7.61l-.08,1.09-.03,.39v.06h0v-.06c.01-.13,.02-.26,.03-.39,.03-.37,.05-.74,.08-1.09Z"/>
        </g>
        <g>
          <polygon class="cls-1" points="495.48 17.12 495.45 17.51 495.44 17.51 495.47 17.12 495.48 17.12"/>
          <path class="cls-1" d="M496.06,8.7l-.03,.39v.06h0v-.06c.01-.13,.02-.26,.03-.39h0Z"/>
          <path class="cls-1" d="M496.62,0c0,.37-.06,1.35-.16,2.93-.02,.3-.04,.61-.06,.93l-.26,3.75-.08,1.09-.03,.45-.56,7.97-.03,.39-.09,1.32-.32,4.52v.06s-.6,8.12-.6,8.12c-.04,.28-.11,.49-.21,.61-.11,.13-.33,.19-.65,.19h-2.93c-2,0-3.42-.39-4.28-1.18-.85-.78-1.28-1.9-1.28-3.36,0-.71,.05-1.93,.16-3.66,.11-1.73,.25-3.69,.43-5.9,.18-2.21,.35-4.54,.53-7,.18-2.46,.36-4.77,.54-6.94,.12-1.57,.24-3,.33-4.29h9.55Z"/>
        </g>
      </g>
    </g>
    <g class="cls-3">
      <path class="cls-1" d="M29.43,499.91v.09h-9.55c.03-.5,.06-.97,.09-1.43,.11-1.64,.16-2.76,.16-3.36,0-.54,.29-.8,.86-.8h2.94c2.17,0,3.63,.46,4.38,1.38,.74,.93,1.12,2.3,1.12,4.12Z"/>
      <g>
        <g>
          <path class="cls-1" d="M12.33,493.93l-.02,.38,.03-.38h-.01Z"/>
          <path class="cls-1" d="M12.89,485.95h.01v0Z"/>
          <path class="cls-1" d="M13.01,484.41l-.08,1.09-.03,.39v.06h0v-.06c.01-.13,.02-.26,.03-.39,.03-.37,.05-.74,.08-1.09Z"/>
        </g>
        <g>
          <polygon class="cls-1" points="12.34 493.93 12.31 494.31 12.31 494.31 12.33 493.93 12.34 493.93"/>
          <path class="cls-1" d="M12.93,485.51l-.03,.39v.06h0v-.06c.01-.13,.02-.26,.03-.39h0Z"/>
          <path class="cls-1" d="M13.48,476.71c0,.29-.05,1.29-.16,3.02-.02,.3-.04,.61-.06,.93l-.37,5.29-.56,7.98-.26,3.68-.17,2.39H2.16c.1-1.49,.22-3.15,.37-4.97,.18-2.2,.36-4.54,.54-6.99,.17-2.46,.35-4.78,.53-6.95,.18-2.17,.32-4.08,.43-5.71,.1-1.64,.16-2.76,.16-3.37,0-.53,.28-.8,.85-.8h2.94c2.17,0,3.63,.46,4.38,1.39,.75,.92,1.12,2.29,1.12,4.11Z"/>
        </g>
      </g>
      <polygon class="cls-1" points="12.33 493.93 12.34 493.93 12.31 494.31 12.07 497.61 12.31 494.31 12.33 493.93"/>
      <path class="cls-1" d="M12.93,485.51c.03-.37,.05-.74,.08-1.09l-.08,1.09-.03,.39v.06h0v-.06c.01-.13,.02-.26,.03-.39Z"/>
    </g>
    <g class="cls-3">
      <g>
        <g>
          <path class="cls-1" d="M120.47,437.12l-.03,.39-.09,1.32,.1-1.32,.03-.39h-.01Z"/>
          <path class="cls-1" d="M121.14,427.61l-.08,1.09-.03,.39v.06h0v-.06c.01-.13,.02-.26,.03-.39,.03-.37,.05-.74,.08-1.09Z"/>
        </g>
        <g>
          <polygon class="cls-1" points="120.48 437.12 120.45 437.51 120.44 437.51 120.47 437.12 120.48 437.12"/>
          <path class="cls-1" d="M121.06,428.7l-.03,.39v.06h0v-.06c.01-.13,.02-.26,.03-.39h0Z"/>
          <path class="cls-1" d="M120.5,415.79c.75,.93,1.12,2.3,1.12,4.11,0,.29-.05,1.29-.16,3.02-.02,.3-.04,.61-.06,.93l-1.37,19.5v.05s-.6,8.12-.6,8.12c-.04,.29-.11,.49-.21,.61-.11,.13-.32,.19-.64,.19h-2.94c-1.99,0-3.42-.39-4.27-1.18-.85-.78-1.28-1.9-1.28-3.36,0-.71,.05-1.93,.16-3.66,.11-1.73,.25-3.7,.43-5.9,.18-2.21,.36-4.54,.53-7s.36-4.77,.53-6.94c.18-2.17,.32-4.08,.43-5.71s.16-2.76,.16-3.36c0-.53,.28-.8,.86-.8h2.94c2.17,0,3.63,.46,4.38,1.39Z"/>
        </g>
      </g>
      <g>
        <g>
          <path class="cls-1" d="M153.28,437.12l-.03,.39-.09,1.32,.1-1.32,.03-.39h0Z"/>
          <path class="cls-1" d="M153.95,427.61l-.08,1.09-.03,.39v.06h0v-.06c.01-.13,.02-.26,.03-.39,.03-.37,.05-.74,.08-1.09Z"/>
        </g>
        <g>
          <polygon class="cls-1" points="153.29 437.12 153.26 437.51 153.25 437.51 153.28 437.12 153.29 437.12"/>
          <path class="cls-1" d="M153.87,428.7l-.03,.39v.06h0v-.06c.01-.13,.02-.26,.03-.39h0Z"/>
          <path class="cls-1" d="M153.31,415.79c.75,.93,1.12,2.3,1.12,4.11,0,.29-.05,1.29-.16,3.02-.02,.3-.04,.61-.06,.93l-1.37,19.5v.05s-.6,8.12-.6,8.12c-.04,.29-.11,.49-.21,.61-.11,.13-.32,.19-.64,.19h-2.94c-1.99,0-3.42-.39-4.27-1.18-.85-.78-1.28-1.9-1.28-3.36,0-.71,.05-1.93,.16-3.66,.11-1.73,.25-3.7,.43-5.9,.18-2.21,.36-4.54,.53-7s.36-4.77,.53-6.94c.18-2.17,.32-4.08,.43-5.71s.16-2.76,.16-3.36c0-.53,.28-.8,.86-.8h2.94c2.17,0,3.63,.46,4.38,1.39Z"/>
        </g>
      </g>
      <g>
        <g>
          <path class="cls-1" d="M137.33,460.32l-.02,.38-.24,3.3,.25-3.3,.02-.38h-.01Z"/>
          <path class="cls-1" d="M137.89,452.34h.01v0Z"/>
          <path class="cls-1" d="M138.01,450.8l-.08,1.09-.03,.39v.06h0v-.06c.01-.13,.02-.26,.03-.39,.03-.37,.05-.74,.08-1.09Z"/>
        </g>
        <g>
          <polygon class="cls-1" points="137.34 460.32 137.31 460.7 137.31 460.7 137.33 460.32 137.34 460.32"/>
          <path class="cls-1" d="M137.93,451.9l-.03,.39v.06h0v-.06c.01-.13,.02-.26,.03-.39h0Z"/>
          <path class="cls-1" d="M137.36,438.99c.75,.93,1.12,2.3,1.12,4.11,0,.29-.05,1.29-.16,3.02-.02,.3-.04,.61-.06,.93l-1.37,19.5v.05s-.6,8.12-.6,8.12c-.04,.29-.11,.49-.21,.61-.11,.13-.32,.19-.64,.19h-2.94c-1.99,0-3.42-.39-4.27-1.18-.85-.78-1.28-1.9-1.28-3.36,0-.71,.05-1.93,.16-3.66,.11-1.73,.25-3.7,.43-5.9,.18-2.21,.36-4.54,.53-7s.36-4.77,.53-6.94c.18-2.17,.32-4.08,.43-5.71s.16-2.76,.16-3.36c0-.53,.28-.8,.86-.8h2.94c2.17,0,3.63,.46,4.38,1.39Z"/>
        </g>
      </g>
      <g>
        <g>
          <path class="cls-1" d="M137.33,413.93l-.02,.38,.03-.38h-.01Z"/>
          <path class="cls-1" d="M137.89,405.95h.01v0Z"/>
          <path class="cls-1" d="M138.01,404.41l-.08,1.09-.03,.39v.06h0v-.06c.01-.13,.02-.26,.03-.39,.03-.37,.05-.74,.08-1.09Z"/>
        </g>
        <g>
          <polygon class="cls-1" points="137.34 413.93 137.31 414.31 137.31 414.31 137.33 413.93 137.34 413.93"/>
          <path class="cls-1" d="M137.93,405.51l-.03,.39v.06h0v-.06c.01-.13,.02-.26,.03-.39h0Z"/>
          <path class="cls-1" d="M137.36,392.6c.75,.93,1.12,2.3,1.12,4.11,0,.29-.05,1.29-.16,3.02-.02,.3-.04,.61-.06,.93l-1.37,19.5v.05s-.6,8.12-.6,8.12c-.04,.29-.11,.49-.21,.61-.11,.13-.32,.19-.64,.19h-2.94c-1.99,0-3.42-.39-4.27-1.18-.85-.78-1.28-1.9-1.28-3.36,0-.71,.05-1.93,.16-3.66,.11-1.73,.25-3.7,.43-5.9,.18-2.21,.36-4.54,.53-7s.36-4.77,.53-6.94c.18-2.17,.32-4.08,.43-5.71s.16-2.76,.16-3.36c0-.53,.28-.8,.86-.8h2.94c2.17,0,3.63,.46,4.38,1.39Z"/>
        </g>
      </g>
      <polygon class="cls-1" points="137.33 413.93 137.34 413.93 137.31 414.31 137.07 417.61 137.31 414.31 137.33 413.93"/>
      <path class="cls-1" d="M137.93,405.51c.03-.37,.05-.74,.08-1.09l-.08,1.09-.03,.39v.06h0v-.06c.01-.13,.02-.26,.03-.39Z"/>
    </g>
    <g class="cls-3">
      <path class="cls-1" d="M246.62,499.91v.09h-9.55c.03-.5,.06-.97,.09-1.43,.11-1.64,.16-2.76,.16-3.36,0-.54,.29-.8,.86-.8h2.94c2.17,0,3.63,.46,4.38,1.38,.74,.93,1.12,2.3,1.12,4.12Z"/>
      <path class="cls-1" d="M279.43,499.91v.09h-9.55c.03-.5,.06-.97,.09-1.43,.11-1.64,.16-2.76,.16-3.36,0-.54,.29-.8,.86-.8h2.94c2.17,0,3.63,.46,4.38,1.38,.74,.93,1.12,2.3,1.12,4.12Z"/>
      <g>
        <g>
          <path class="cls-1" d="M262.33,493.93l-.02,.38,.03-.38h-.01Z"/>
          <path class="cls-1" d="M262.89,485.95h.01v0Z"/>
          <path class="cls-1" d="M263.01,484.41l-.08,1.09-.03,.39v.06h0v-.06c.01-.13,.02-.26,.03-.39,.03-.37,.05-.74,.08-1.09Z"/>
        </g>
        <g>
          <polygon class="cls-1" points="262.34 493.93 262.31 494.31 262.31 494.31 262.33 493.93 262.34 493.93"/>
          <path class="cls-1" d="M262.93,485.51l-.03,.39v.06h0v-.06c.01-.13,.02-.26,.03-.39h0Z"/>
          <path class="cls-1" d="M263.48,476.71c0,.29-.05,1.29-.16,3.02-.02,.3-.04,.61-.06,.93l-.37,5.29-.56,7.98-.26,3.68-.17,2.39h-9.74c.1-1.49,.22-3.15,.37-4.97,.18-2.2,.36-4.54,.54-6.99,.17-2.46,.35-4.78,.53-6.95,.18-2.17,.32-4.08,.43-5.71,.1-1.64,.16-2.76,.16-3.37,0-.53,.28-.8,.85-.8h2.94c2.17,0,3.63,.46,4.38,1.39,.75,.92,1.12,2.29,1.12,4.11Z"/>
        </g>
      </g>
      <polygon class="cls-1" points="262.33 493.93 262.34 493.93 262.31 494.31 262.07 497.61 262.31 494.31 262.33 493.93"/>
      <path class="cls-1" d="M262.93,485.51c.03-.37,.05-.74,.08-1.09l-.08,1.09-.03,.39v.06h0v-.06c.01-.13,.02-.26,.03-.39Z"/>
    </g>
    <g class="cls-3">
      <g>
        <g>
          <path class="cls-1" d="M370.47,437.12l-.03,.39-.09,1.32,.1-1.32,.03-.39h-.01Z"/>
          <path class="cls-1" d="M371.14,427.61l-.08,1.09-.03,.39v.06h0v-.06c.01-.13,.02-.26,.03-.39,.03-.37,.05-.74,.08-1.09Z"/>
        </g>
        <g>
          <polygon class="cls-1" points="370.48 437.12 370.45 437.51 370.44 437.51 370.47 437.12 370.48 437.12"/>
          <path class="cls-1" d="M371.06,428.7l-.03,.39v.06h0v-.06c.01-.13,.02-.26,.03-.39h0Z"/>
          <path class="cls-1" d="M370.5,415.79c.75,.93,1.12,2.3,1.12,4.11,0,.29-.05,1.29-.16,3.02-.02,.3-.04,.61-.06,.93l-1.37,19.5v.05s-.6,8.12-.6,8.12c-.04,.29-.11,.49-.21,.61-.11,.13-.32,.19-.64,.19h-2.94c-1.99,0-3.42-.39-4.27-1.18-.85-.78-1.28-1.9-1.28-3.36,0-.71,.05-1.93,.16-3.66,.11-1.73,.25-3.7,.43-5.9,.18-2.21,.36-4.54,.53-7s.36-4.77,.53-6.94c.18-2.17,.32-4.08,.43-5.71s.16-2.76,.16-3.36c0-.53,.28-.8,.86-.8h2.94c2.17,0,3.63,.46,4.38,1.39Z"/>
        </g>
      </g>
      <g>
        <g>
          <path class="cls-1" d="M403.28,437.12l-.03,.39-.09,1.32,.1-1.32,.03-.39h0Z"/>
          <path class="cls-1" d="M403.95,427.61l-.08,1.09-.03,.39v.06h0v-.06c.01-.13,.02-.26,.03-.39,.03-.37,.05-.74,.08-1.09Z"/>
        </g>
        <g>
          <polygon class="cls-1" points="403.29 437.12 403.26 437.51 403.25 437.51 403.28 437.12 403.29 437.12"/>
          <path class="cls-1" d="M403.87,428.7l-.03,.39v.06h0v-.06c.01-.13,.02-.26,.03-.39h0Z"/>
          <path class="cls-1" d="M403.31,415.79c.75,.93,1.12,2.3,1.12,4.11,0,.29-.05,1.29-.16,3.02-.02,.3-.04,.61-.06,.93l-1.37,19.5v.05s-.6,8.12-.6,8.12c-.04,.29-.11,.49-.21,.61-.11,.13-.32,.19-.64,.19h-2.94c-1.99,0-3.42-.39-4.27-1.18-.85-.78-1.28-1.9-1.28-3.36,0-.71,.05-1.93,.16-3.66,.11-1.73,.25-3.7,.43-5.9,.18-2.21,.36-4.54,.53-7s.36-4.77,.53-6.94c.18-2.17,.32-4.08,.43-5.71s.16-2.76,.16-3.36c0-.53,.28-.8,.86-.8h2.94c2.17,0,3.63,.46,4.38,1.39Z"/>
        </g>
      </g>
      <g>
        <g>
          <path class="cls-1" d="M387.33,460.32l-.02,.38-.24,3.3,.25-3.3,.02-.38h-.01Z"/>
          <path class="cls-1" d="M387.89,452.34h.01v0Z"/>
          <path class="cls-1" d="M388.01,450.8l-.08,1.09-.03,.39v.06h0v-.06c.01-.13,.02-.26,.03-.39,.03-.37,.05-.74,.08-1.09Z"/>
        </g>
        <g>
          <polygon class="cls-1" points="387.34 460.32 387.31 460.7 387.31 460.7 387.33 460.32 387.34 460.32"/>
          <path class="cls-1" d="M387.93,451.9l-.03,.39v.06h0v-.06c.01-.13,.02-.26,.03-.39h0Z"/>
          <path class="cls-1" d="M387.36,438.99c.75,.93,1.12,2.3,1.12,4.11,0,.29-.05,1.29-.16,3.02-.02,.3-.04,.61-.06,.93l-1.37,19.5v.05s-.6,8.12-.6,8.12c-.04,.29-.11,.49-.21,.61-.11,.13-.32,.19-.64,.19h-2.94c-1.99,0-3.42-.39-4.27-1.18-.85-.78-1.28-1.9-1.28-3.36,0-.71,.05-1.93,.16-3.66,.11-1.73,.25-3.7,.43-5.9,.18-2.21,.36-4.54,.53-7s.36-4.77,.53-6.94c.18-2.17,.32-4.08,.43-5.71s.16-2.76,.16-3.36c0-.53,.28-.8,.86-.8h2.94c2.17,0,3.63,.46,4.38,1.39Z"/>
        </g>
      </g>
      <g>
        <g>
          <path class="cls-1" d="M387.33,413.93l-.02,.38,.03-.38h-.01Z"/>
          <path class="cls-1" d="M387.89,405.95h.01v0Z"/>
          <path class="cls-1" d="M388.01,404.41l-.08,1.09-.03,.39v.06h0v-.06c.01-.13,.02-.26,.03-.39,.03-.37,.05-.74,.08-1.09Z"/>
        </g>
        <g>
          <polygon class="cls-1" points="387.34 413.93 387.31 414.31 387.31 414.31 387.33 413.93 387.34 413.93"/>
          <path class="cls-1" d="M387.93,405.51l-.03,.39v.06h0v-.06c.01-.13,.02-.26,.03-.39h0Z"/>
          <path class="cls-1" d="M387.36,392.6c.75,.93,1.12,2.3,1.12,4.11,0,.29-.05,1.29-.16,3.02-.02,.3-.04,.61-.06,.93l-1.37,19.5v.05s-.6,8.12-.6,8.12c-.04,.29-.11,.49-.21,.61-.11,.13-.32,.19-.64,.19h-2.94c-1.99,0-3.42-.39-4.27-1.18-.85-.78-1.28-1.9-1.28-3.36,0-.71,.05-1.93,.16-3.66,.11-1.73,.25-3.7,.43-5.9,.18-2.21,.36-4.54,.53-7s.36-4.77,.53-6.94c.18-2.17,.32-4.08,.43-5.71s.16-2.76,.16-3.36c0-.53,.28-.8,.86-.8h2.94c2.17,0,3.63,.46,4.38,1.39Z"/>
        </g>
      </g>
      <polygon class="cls-1" points="387.33 413.93 387.34 413.93 387.31 414.31 387.07 417.61 387.31 414.31 387.33 413.93"/>
      <path class="cls-1" d="M387.93,405.51c.03-.37,.05-.74,.08-1.09l-.08,1.09-.03,.39v.06h0v-.06c.01-.13,.02-.26,.03-.39Z"/>
    </g>
    <g class="cls-3">
      <path class="cls-1" d="M496.62,499.91v.09h-9.55c.03-.5,.06-.97,.09-1.43,.11-1.64,.16-2.76,.16-3.36,0-.54,.29-.8,.86-.8h2.94c2.17,0,3.63,.46,4.38,1.38,.74,.93,1.12,2.3,1.12,4.12Z"/>
    </g>
    <g class="cls-3">
      <g>
        <g>
          <path class="cls-1" d="M28.28,350.45l-.03,.39-.12,1.79,.13-1.79,.03-.39h0Z"/>
          <path class="cls-1" d="M28.95,340.94l-.08,1.09-.03,.39v.06h0v-.06c.01-.13,.02-.26,.03-.39,.03-.37,.05-.74,.08-1.09Z"/>
        </g>
        <g>
          <polygon class="cls-1" points="28.29 350.45 28.26 350.84 28.25 350.84 28.28 350.45 28.29 350.45"/>
          <path class="cls-1" d="M28.87,342.03l-.03,.39v.06h0v-.06c.01-.13,.02-.26,.03-.39h0Z"/>
          <path class="cls-1" d="M28.31,329.13c.75,.93,1.12,2.3,1.12,4.11,0,.29-.05,1.29-.16,3.02-.02,.3-.04,.61-.06,.93l-1.37,19.5v.05s-.6,8.12-.6,8.12c-.04,.29-.11,.49-.21,.61-.11,.13-.32,.19-.64,.19h-2.94c-1.99,0-3.42-.39-4.27-1.18-.85-.78-1.28-1.9-1.28-3.36,0-.71,.05-1.93,.16-3.66,.11-1.73,.25-3.7,.43-5.9,.18-2.21,.36-4.54,.53-7s.36-4.77,.53-6.94c.18-2.17,.32-4.08,.43-5.71s.16-2.76,.16-3.36c0-.53,.28-.8,.86-.8h2.94c2.17,0,3.63,.46,4.38,1.39Z"/>
        </g>
      </g>
      <g>
        <g>
          <path class="cls-1" d="M12.33,373.65l-.02,.39-.24,3.29,.25-3.29,.02-.39h-.01Z"/>
          <path class="cls-1" d="M12.89,365.68h.01v0Z"/>
          <path class="cls-1" d="M13.01,364.14l-.08,1.09-.03,.39v.06h0v-.06c.01-.13,.02-.26,.03-.39,.03-.37,.05-.74,.08-1.09Z"/>
        </g>
        <g>
          <polygon class="cls-1" points="12.34 373.65 12.31 374.04 12.31 374.04 12.33 373.65 12.34 373.65"/>
          <path class="cls-1" d="M12.93,365.23l-.03,.39v.06h0v-.06c.01-.13,.02-.26,.03-.39h0Z"/>
          <path class="cls-1" d="M12.36,352.32c.75,.93,1.12,2.3,1.12,4.11,0,.29-.05,1.29-.16,3.02-.02,.3-.04,.61-.06,.93l-1.37,19.5v.05s-.6,8.12-.6,8.12c-.04,.29-.11,.49-.21,.61-.11,.13-.32,.19-.64,.19h-2.94c-1.99,0-3.42-.39-4.27-1.18-.85-.78-1.28-1.9-1.28-3.36,0-.71,.05-1.93,.16-3.66,.11-1.73,.25-3.7,.43-5.9,.18-2.21,.36-4.54,.53-7s.36-4.77,.53-6.94c.18-2.17,.32-4.08,.43-5.71s.16-2.76,.16-3.36c0-.53,.28-.8,.86-.8h2.94c2.17,0,3.63,.46,4.38,1.39Z"/>
        </g>
      </g>
      <g>
        <g>
          <path class="cls-1" d="M12.33,327.26l-.02,.39,.03-.39h-.01Z"/>
          <path class="cls-1" d="M12.89,319.29h.01v0Z"/>
          <path class="cls-1" d="M13.01,317.75l-.08,1.09-.03,.39v.06h0v-.06c.01-.13,.02-.26,.03-.39,.03-.37,.05-.74,.08-1.09Z"/>
        </g>
        <g>
          <polygon class="cls-1" points="12.34 327.26 12.31 327.65 12.31 327.65 12.33 327.26 12.34 327.26"/>
          <path class="cls-1" d="M12.93,318.84l-.03,.39v.06h0v-.06c.01-.13,.02-.26,.03-.39h0Z"/>
          <path class="cls-1" d="M12.36,305.93c.75,.93,1.12,2.3,1.12,4.11,0,.29-.05,1.29-.16,3.02-.02,.3-.04,.61-.06,.93l-1.37,19.5v.05s-.6,8.12-.6,8.12c-.04,.29-.11,.49-.21,.61-.11,.13-.32,.19-.64,.19h-2.94c-1.99,0-3.42-.39-4.27-1.18-.85-.78-1.28-1.9-1.28-3.36,0-.71,.05-1.93,.16-3.66,.11-1.73,.25-3.7,.43-5.9,.18-2.21,.36-4.54,.53-7s.36-4.77,.53-6.94c.18-2.17,.32-4.08,.43-5.71s.16-2.76,.16-3.36c0-.53,.28-.8,.86-.8h2.94c2.17,0,3.63,.46,4.38,1.39Z"/>
        </g>
      </g>
      <polygon class="cls-1" points="12.33 327.26 12.34 327.26 12.31 327.65 12.07 330.94 12.31 327.65 12.33 327.26"/>
      <path class="cls-1" d="M12.93,318.84c.03-.37,.05-.74,.08-1.09l-.08,1.09-.03,.39v.06h0v-.06c.01-.13,.02-.26,.03-.39Z"/>
    </g>
    <g class="cls-3">
      <g>
        <g>
          <path class="cls-1" d="M120.47,270.45l-.03,.39-.12,1.79,.13-1.79,.03-.39h-.01Z"/>
          <path class="cls-1" d="M121.14,260.94l-.08,1.09-.03,.39v.06h0v-.06c.01-.13,.02-.26,.03-.39,.03-.37,.05-.74,.08-1.09Z"/>
        </g>
        <g>
          <polygon class="cls-1" points="120.48 270.45 120.45 270.84 120.44 270.84 120.47 270.45 120.48 270.45"/>
          <path class="cls-1" d="M121.06,262.03l-.03,.39v.06h0v-.06c.01-.13,.02-.26,.03-.39h0Z"/>
          <path class="cls-1" d="M120.5,249.13c.75,.93,1.12,2.3,1.12,4.11,0,.29-.05,1.29-.16,3.02-.02,.3-.04,.61-.06,.93l-1.37,19.5v.05s-.6,8.12-.6,8.12c-.04,.29-.11,.49-.21,.61-.11,.13-.32,.19-.64,.19h-2.94c-1.99,0-3.42-.39-4.27-1.18-.85-.78-1.28-1.9-1.28-3.36,0-.71,.05-1.93,.16-3.66,.11-1.73,.25-3.7,.43-5.9,.18-2.21,.36-4.54,.53-7s.36-4.77,.53-6.94c.18-2.17,.32-4.08,.43-5.71s.16-2.76,.16-3.36c0-.53,.28-.8,.86-.8h2.94c2.17,0,3.63,.46,4.38,1.39Z"/>
        </g>
      </g>
      <g>
        <g>
          <path class="cls-1" d="M153.28,270.45l-.03,.39-.12,1.79,.13-1.79,.03-.39h0Z"/>
          <path class="cls-1" d="M153.95,260.94l-.08,1.09-.03,.39v.06h0v-.06c.01-.13,.02-.26,.03-.39,.03-.37,.05-.74,.08-1.09Z"/>
        </g>
        <g>
          <polygon class="cls-1" points="153.29 270.45 153.26 270.84 153.25 270.84 153.28 270.45 153.29 270.45"/>
          <path class="cls-1" d="M153.87,262.03l-.03,.39v.06h0v-.06c.01-.13,.02-.26,.03-.39h0Z"/>
          <path class="cls-1" d="M153.31,249.13c.75,.93,1.12,2.3,1.12,4.11,0,.29-.05,1.29-.16,3.02-.02,.3-.04,.61-.06,.93l-1.37,19.5v.05s-.6,8.12-.6,8.12c-.04,.29-.11,.49-.21,.61-.11,.13-.32,.19-.64,.19h-2.94c-1.99,0-3.42-.39-4.27-1.18-.85-.78-1.28-1.9-1.28-3.36,0-.71,.05-1.93,.16-3.66,.11-1.73,.25-3.7,.43-5.9,.18-2.21,.36-4.54,.53-7s.36-4.77,.53-6.94c.18-2.17,.32-4.08,.43-5.71s.16-2.76,.16-3.36c0-.53,.28-.8,.86-.8h2.94c2.17,0,3.63,.46,4.38,1.39Z"/>
        </g>
      </g>
      <g>
        <g>
          <path class="cls-1" d="M137.33,293.65l-.02,.39-.24,3.29,.25-3.29,.02-.39h-.01Z"/>
          <path class="cls-1" d="M137.89,285.68h.01v0Z"/>
          <path class="cls-1" d="M138.01,284.14l-.08,1.09-.03,.39v.06h0v-.06c.01-.13,.02-.26,.03-.39,.03-.37,.05-.74,.08-1.09Z"/>
        </g>
        <g>
          <polygon class="cls-1" points="137.34 293.65 137.31 294.04 137.31 294.04 137.33 293.65 137.34 293.65"/>
          <path class="cls-1" d="M137.93,285.23l-.03,.39v.06h0v-.06c.01-.13,.02-.26,.03-.39h0Z"/>
          <path class="cls-1" d="M137.36,272.32c.75,.93,1.12,2.3,1.12,4.11,0,.29-.05,1.29-.16,3.02-.02,.3-.04,.61-.06,.93l-1.37,19.5v.05s-.6,8.12-.6,8.12c-.04,.29-.11,.49-.21,.61-.11,.13-.32,.19-.64,.19h-2.94c-1.99,0-3.42-.39-4.27-1.18-.85-.78-1.28-1.9-1.28-3.36,0-.71,.05-1.93,.16-3.66,.11-1.73,.25-3.7,.43-5.9,.18-2.21,.36-4.54,.53-7s.36-4.77,.53-6.94c.18-2.17,.32-4.08,.43-5.71s.16-2.76,.16-3.36c0-.53,.28-.8,.86-.8h2.94c2.17,0,3.63,.46,4.38,1.39Z"/>
        </g>
      </g>
      <g>
        <g>
          <path class="cls-1" d="M137.33,247.26l-.02,.39,.03-.39h-.01Z"/>
          <path class="cls-1" d="M137.89,239.29h.01v0Z"/>
          <path class="cls-1" d="M138.01,237.75l-.08,1.09-.03,.39v.06h0v-.06c.01-.13,.02-.26,.03-.39,.03-.37,.05-.74,.08-1.09Z"/>
        </g>
        <g>
          <polygon class="cls-1" points="137.34 247.26 137.31 247.65 137.31 247.65 137.33 247.26 137.34 247.26"/>
          <path class="cls-1" d="M137.93,238.84l-.03,.39v.06h0v-.06c.01-.13,.02-.26,.03-.39h0Z"/>
          <path class="cls-1" d="M137.36,225.93c.75,.93,1.12,2.3,1.12,4.11,0,.29-.05,1.29-.16,3.02-.02,.3-.04,.61-.06,.93l-1.37,19.5v.05s-.6,8.12-.6,8.12c-.04,.29-.11,.49-.21,.61-.11,.13-.32,.19-.64,.19h-2.94c-1.99,0-3.42-.39-4.27-1.18-.85-.78-1.28-1.9-1.28-3.36,0-.71,.05-1.93,.16-3.66,.11-1.73,.25-3.7,.43-5.9,.18-2.21,.36-4.54,.53-7s.36-4.77,.53-6.94c.18-2.17,.32-4.08,.43-5.71s.16-2.76,.16-3.36c0-.53,.28-.8,.86-.8h2.94c2.17,0,3.63,.46,4.38,1.39Z"/>
        </g>
      </g>
      <polygon class="cls-1" points="137.33 247.26 137.34 247.26 137.31 247.65 137.07 250.94 137.31 247.65 137.33 247.26"/>
      <path class="cls-1" d="M137.93,238.84c.03-.37,.05-.74,.08-1.09l-.08,1.09-.03,.39v.06h0v-.06c.01-.13,.02-.26,.03-.39Z"/>
    </g>
    <g class="cls-3">
      <g>
        <g>
          <path class="cls-1" d="M245.47,350.45l-.03,.39-.12,1.79,.13-1.79,.03-.39h-.01Z"/>
          <path class="cls-1" d="M246.14,340.94l-.08,1.09-.03,.39v.06h0v-.06c.01-.13,.02-.26,.03-.39,.03-.37,.05-.74,.08-1.09Z"/>
        </g>
        <g>
          <polygon class="cls-1" points="245.48 350.45 245.45 350.84 245.44 350.84 245.47 350.45 245.48 350.45"/>
          <path class="cls-1" d="M246.06,342.03l-.03,.39v.06h0v-.06c.01-.13,.02-.26,.03-.39h0Z"/>
          <path class="cls-1" d="M245.5,329.13c.75,.93,1.12,2.3,1.12,4.11,0,.29-.05,1.29-.16,3.02-.02,.3-.04,.61-.06,.93l-1.37,19.5v.05s-.6,8.12-.6,8.12c-.04,.29-.11,.49-.21,.61-.11,.13-.32,.19-.64,.19h-2.94c-1.99,0-3.42-.39-4.27-1.18-.85-.78-1.28-1.9-1.28-3.36,0-.71,.05-1.93,.16-3.66,.11-1.73,.25-3.7,.43-5.9,.18-2.21,.36-4.54,.53-7s.36-4.77,.53-6.94c.18-2.17,.32-4.08,.43-5.71s.16-2.76,.16-3.36c0-.53,.28-.8,.86-.8h2.94c2.17,0,3.63,.46,4.38,1.39Z"/>
        </g>
      </g>
      <g>
        <g>
          <path class="cls-1" d="M278.28,350.45l-.03,.39-.12,1.79,.13-1.79,.03-.39h0Z"/>
          <path class="cls-1" d="M278.95,340.94l-.08,1.09-.03,.39v.06h0v-.06c.01-.13,.02-.26,.03-.39,.03-.37,.05-.74,.08-1.09Z"/>
        </g>
        <g>
          <polygon class="cls-1" points="278.29 350.45 278.26 350.84 278.25 350.84 278.28 350.45 278.29 350.45"/>
          <path class="cls-1" d="M278.87,342.03l-.03,.39v.06h0v-.06c.01-.13,.02-.26,.03-.39h0Z"/>
          <path class="cls-1" d="M278.31,329.13c.75,.93,1.12,2.3,1.12,4.11,0,.29-.05,1.29-.16,3.02-.02,.3-.04,.61-.06,.93l-1.37,19.5v.05s-.6,8.12-.6,8.12c-.04,.29-.11,.49-.21,.61-.11,.13-.32,.19-.64,.19h-2.94c-1.99,0-3.42-.39-4.27-1.18-.85-.78-1.28-1.9-1.28-3.36,0-.71,.05-1.93,.16-3.66,.11-1.73,.25-3.7,.43-5.9,.18-2.21,.36-4.54,.53-7s.36-4.77,.53-6.94c.18-2.17,.32-4.08,.43-5.71s.16-2.76,.16-3.36c0-.53,.28-.8,.86-.8h2.94c2.17,0,3.63,.46,4.38,1.39Z"/>
        </g>
      </g>
      <g>
        <g>
          <path class="cls-1" d="M262.33,373.65l-.02,.39-.24,3.29,.25-3.29,.02-.39h-.01Z"/>
          <path class="cls-1" d="M262.89,365.68h.01v0Z"/>
          <path class="cls-1" d="M263.01,364.14l-.08,1.09-.03,.39v.06h0v-.06c.01-.13,.02-.26,.03-.39,.03-.37,.05-.74,.08-1.09Z"/>
        </g>
        <g>
          <polygon class="cls-1" points="262.34 373.65 262.31 374.04 262.31 374.04 262.33 373.65 262.34 373.65"/>
          <path class="cls-1" d="M262.93,365.23l-.03,.39v.06h0v-.06c.01-.13,.02-.26,.03-.39h0Z"/>
          <path class="cls-1" d="M262.36,352.32c.75,.93,1.12,2.3,1.12,4.11,0,.29-.05,1.29-.16,3.02-.02,.3-.04,.61-.06,.93l-1.37,19.5v.05s-.6,8.12-.6,8.12c-.04,.29-.11,.49-.21,.61-.11,.13-.32,.19-.64,.19h-2.94c-1.99,0-3.42-.39-4.27-1.18-.85-.78-1.28-1.9-1.28-3.36,0-.71,.05-1.93,.16-3.66,.11-1.73,.25-3.7,.43-5.9,.18-2.21,.36-4.54,.53-7s.36-4.77,.53-6.94c.18-2.17,.32-4.08,.43-5.71s.16-2.76,.16-3.36c0-.53,.28-.8,.86-.8h2.94c2.17,0,3.63,.46,4.38,1.39Z"/>
        </g>
      </g>
      <g>
        <g>
          <path class="cls-1" d="M262.33,327.26l-.02,.39,.03-.39h-.01Z"/>
          <path class="cls-1" d="M262.89,319.29h.01v0Z"/>
          <path class="cls-1" d="M263.01,317.75l-.08,1.09-.03,.39v.06h0v-.06c.01-.13,.02-.26,.03-.39,.03-.37,.05-.74,.08-1.09Z"/>
        </g>
        <g>
          <polygon class="cls-1" points="262.34 327.26 262.31 327.65 262.31 327.65 262.33 327.26 262.34 327.26"/>
          <path class="cls-1" d="M262.93,318.84l-.03,.39v.06h0v-.06c.01-.13,.02-.26,.03-.39h0Z"/>
          <path class="cls-1" d="M262.36,305.93c.75,.93,1.12,2.3,1.12,4.11,0,.29-.05,1.29-.16,3.02-.02,.3-.04,.61-.06,.93l-1.37,19.5v.05s-.6,8.12-.6,8.12c-.04,.29-.11,.49-.21,.61-.11,.13-.32,.19-.64,.19h-2.94c-1.99,0-3.42-.39-4.27-1.18-.85-.78-1.28-1.9-1.28-3.36,0-.71,.05-1.93,.16-3.66,.11-1.73,.25-3.7,.43-5.9,.18-2.21,.36-4.54,.53-7s.36-4.77,.53-6.94c.18-2.17,.32-4.08,.43-5.71s.16-2.76,.16-3.36c0-.53,.28-.8,.86-.8h2.94c2.17,0,3.63,.46,4.38,1.39Z"/>
        </g>
      </g>
      <polygon class="cls-1" points="262.33 327.26 262.34 327.26 262.31 327.65 262.07 330.94 262.31 327.65 262.33 327.26"/>
      <path class="cls-1" d="M262.93,318.84c.03-.37,.05-.74,.08-1.09l-.08,1.09-.03,.39v.06h0v-.06c.01-.13,.02-.26,.03-.39Z"/>
    </g>
    <g class="cls-3">
      <g>
        <g>
          <path class="cls-1" d="M370.47,270.45l-.03,.39-.12,1.79,.13-1.79,.03-.39h-.01Z"/>
          <path class="cls-1" d="M371.14,260.94l-.08,1.09-.03,.39v.06h0v-.06c.01-.13,.02-.26,.03-.39,.03-.37,.05-.74,.08-1.09Z"/>
        </g>
        <g>
          <polygon class="cls-1" points="370.48 270.45 370.45 270.84 370.44 270.84 370.47 270.45 370.48 270.45"/>
          <path class="cls-1" d="M371.06,262.03l-.03,.39v.06h0v-.06c.01-.13,.02-.26,.03-.39h0Z"/>
          <path class="cls-1" d="M370.5,249.13c.75,.93,1.12,2.3,1.12,4.11,0,.29-.05,1.29-.16,3.02-.02,.3-.04,.61-.06,.93l-1.37,19.5v.05s-.6,8.12-.6,8.12c-.04,.29-.11,.49-.21,.61-.11,.13-.32,.19-.64,.19h-2.94c-1.99,0-3.42-.39-4.27-1.18-.85-.78-1.28-1.9-1.28-3.36,0-.71,.05-1.93,.16-3.66,.11-1.73,.25-3.7,.43-5.9,.18-2.21,.36-4.54,.53-7s.36-4.77,.53-6.94c.18-2.17,.32-4.08,.43-5.71s.16-2.76,.16-3.36c0-.53,.28-.8,.86-.8h2.94c2.17,0,3.63,.46,4.38,1.39Z"/>
        </g>
      </g>
      <g>
        <g>
          <path class="cls-1" d="M403.28,270.45l-.03,.39-.12,1.79,.13-1.79,.03-.39h0Z"/>
          <path class="cls-1" d="M403.95,260.94l-.08,1.09-.03,.39v.06h0v-.06c.01-.13,.02-.26,.03-.39,.03-.37,.05-.74,.08-1.09Z"/>
        </g>
        <g>
          <polygon class="cls-1" points="403.29 270.45 403.26 270.84 403.25 270.84 403.28 270.45 403.29 270.45"/>
          <path class="cls-1" d="M403.87,262.03l-.03,.39v.06h0v-.06c.01-.13,.02-.26,.03-.39h0Z"/>
          <path class="cls-1" d="M403.31,249.13c.75,.93,1.12,2.3,1.12,4.11,0,.29-.05,1.29-.16,3.02-.02,.3-.04,.61-.06,.93l-1.37,19.5v.05s-.6,8.12-.6,8.12c-.04,.29-.11,.49-.21,.61-.11,.13-.32,.19-.64,.19h-2.94c-1.99,0-3.42-.39-4.27-1.18-.85-.78-1.28-1.9-1.28-3.36,0-.71,.05-1.93,.16-3.66,.11-1.73,.25-3.7,.43-5.9,.18-2.21,.36-4.54,.53-7s.36-4.77,.53-6.94c.18-2.17,.32-4.08,.43-5.71s.16-2.76,.16-3.36c0-.53,.28-.8,.86-.8h2.94c2.17,0,3.63,.46,4.38,1.39Z"/>
        </g>
      </g>
      <g>
        <g>
          <path class="cls-1" d="M387.33,293.65l-.02,.39-.24,3.29,.25-3.29,.02-.39h-.01Z"/>
          <path class="cls-1" d="M387.89,285.68h.01v0Z"/>
          <path class="cls-1" d="M388.01,284.14l-.08,1.09-.03,.39v.06h0v-.06c.01-.13,.02-.26,.03-.39,.03-.37,.05-.74,.08-1.09Z"/>
        </g>
        <g>
          <polygon class="cls-1" points="387.34 293.65 387.31 294.04 387.31 294.04 387.33 293.65 387.34 293.65"/>
          <path class="cls-1" d="M387.93,285.23l-.03,.39v.06h0v-.06c.01-.13,.02-.26,.03-.39h0Z"/>
          <path class="cls-1" d="M387.36,272.32c.75,.93,1.12,2.3,1.12,4.11,0,.29-.05,1.29-.16,3.02-.02,.3-.04,.61-.06,.93l-1.37,19.5v.05s-.6,8.12-.6,8.12c-.04,.29-.11,.49-.21,.61-.11,.13-.32,.19-.64,.19h-2.94c-1.99,0-3.42-.39-4.27-1.18-.85-.78-1.28-1.9-1.28-3.36,0-.71,.05-1.93,.16-3.66,.11-1.73,.25-3.7,.43-5.9,.18-2.21,.36-4.54,.53-7s.36-4.77,.53-6.94c.18-2.17,.32-4.08,.43-5.71s.16-2.76,.16-3.36c0-.53,.28-.8,.86-.8h2.94c2.17,0,3.63,.46,4.38,1.39Z"/>
        </g>
      </g>
      <g>
        <g>
          <path class="cls-1" d="M387.33,247.26l-.02,.39,.03-.39h-.01Z"/>
          <path class="cls-1" d="M387.89,239.29h.01v0Z"/>
          <path class="cls-1" d="M388.01,237.75l-.08,1.09-.03,.39v.06h0v-.06c.01-.13,.02-.26,.03-.39,.03-.37,.05-.74,.08-1.09Z"/>
        </g>
        <g>
          <polygon class="cls-1" points="387.34 247.26 387.31 247.65 387.31 247.65 387.33 247.26 387.34 247.26"/>
          <path class="cls-1" d="M387.93,238.84l-.03,.39v.06h0v-.06c.01-.13,.02-.26,.03-.39h0Z"/>
          <path class="cls-1" d="M387.36,225.93c.75,.93,1.12,2.3,1.12,4.11,0,.29-.05,1.29-.16,3.02-.02,.3-.04,.61-.06,.93l-1.37,19.5v.05s-.6,8.12-.6,8.12c-.04,.29-.11,.49-.21,.61-.11,.13-.32,.19-.64,.19h-2.94c-1.99,0-3.42-.39-4.27-1.18-.85-.78-1.28-1.9-1.28-3.36,0-.71,.05-1.93,.16-3.66,.11-1.73,.25-3.7,.43-5.9,.18-2.21,.36-4.54,.53-7s.36-4.77,.53-6.94c.18-2.17,.32-4.08,.43-5.71s.16-2.76,.16-3.36c0-.53,.28-.8,.86-.8h2.94c2.17,0,3.63,.46,4.38,1.39Z"/>
        </g>
      </g>
      <polygon class="cls-1" points="387.33 247.26 387.34 247.26 387.31 247.65 387.07 250.94 387.31 247.65 387.33 247.26"/>
      <path class="cls-1" d="M387.93,238.84c.03-.37,.05-.74,.08-1.09l-.08,1.09-.03,.39v.06h0v-.06c.01-.13,.02-.26,.03-.39Z"/>
    </g>
    <g class="cls-3">
      <g>
        <g>
          <path class="cls-1" d="M495.47,350.45l-.03,.39-.12,1.79,.13-1.79,.03-.39h0Z"/>
          <path class="cls-1" d="M496.14,340.94l-.08,1.09-.03,.39v.06h0v-.06c.01-.13,.02-.26,.03-.39,.03-.37,.05-.74,.08-1.09Z"/>
        </g>
        <g>
          <polygon class="cls-1" points="495.48 350.45 495.45 350.84 495.44 350.84 495.47 350.45 495.48 350.45"/>
          <path class="cls-1" d="M496.06,342.03l-.03,.39v.06h0v-.06c.01-.13,.02-.26,.03-.39h0Z"/>
          <path class="cls-1" d="M495.5,329.13c.75,.93,1.12,2.3,1.12,4.11,0,.29-.05,1.29-.16,3.02-.02,.3-.04,.61-.06,.93l-1.37,19.5v.05s-.6,8.12-.6,8.12c-.04,.29-.11,.49-.21,.61-.11,.13-.32,.19-.64,.19h-2.94c-1.99,0-3.42-.39-4.27-1.18-.85-.78-1.28-1.9-1.28-3.36,0-.71,.05-1.93,.16-3.66,.11-1.73,.25-3.7,.43-5.9,.18-2.21,.36-4.54,.53-7s.36-4.77,.53-6.94c.18-2.17,.32-4.08,.43-5.71s.16-2.76,.16-3.36c0-.53,.28-.8,.86-.8h2.94c2.17,0,3.63,.46,4.38,1.39Z"/>
        </g>
      </g>
    </g>
    <g class="cls-3">
      <g>
        <g>
          <path class="cls-1" d="M28.28,183.79l-.03,.39-.23,3.29,.24-3.29,.03-.39h0Z"/>
          <path class="cls-1" d="M28.95,174.28l-.08,1.09-.03,.39v.06h0v-.06c.01-.13,.02-.26,.03-.39,.03-.37,.05-.74,.08-1.09Z"/>
        </g>
        <g>
          <polygon class="cls-1" points="28.29 183.79 28.26 184.18 28.25 184.18 28.28 183.79 28.29 183.79"/>
          <path class="cls-1" d="M28.87,175.37l-.03,.39v.06h0v-.06c.01-.13,.02-.26,.03-.39h0Z"/>
          <path class="cls-1" d="M28.31,162.46c.75,.93,1.12,2.3,1.12,4.11,0,.29-.05,1.29-.16,3.02-.02,.3-.04,.61-.06,.93l-1.37,19.5v.05s-.6,8.12-.6,8.12c-.04,.29-.11,.49-.21,.61-.11,.13-.32,.19-.64,.19h-2.94c-1.99,0-3.42-.39-4.27-1.18-.85-.78-1.28-1.9-1.28-3.36,0-.71,.05-1.93,.16-3.66,.11-1.73,.25-3.7,.43-5.9,.18-2.21,.36-4.54,.53-7s.36-4.77,.53-6.94c.18-2.17,.32-4.08,.43-5.71s.16-2.76,.16-3.36c0-.53,.28-.8,.86-.8h2.94c2.17,0,3.63,.46,4.38,1.39Z"/>
        </g>
      </g>
      <g>
        <g>
          <path class="cls-1" d="M12.33,206.98l-.02,.39-.24,3.29,.25-3.29,.02-.39h-.01Z"/>
          <path class="cls-1" d="M12.89,199.01h.01v0Z"/>
          <path class="cls-1" d="M13.01,197.47l-.08,1.09-.03,.39v.06h0v-.06c.01-.13,.02-.26,.03-.39,.03-.37,.05-.74,.08-1.09Z"/>
        </g>
        <g>
          <polygon class="cls-1" points="12.34 206.98 12.31 207.37 12.31 207.37 12.33 206.98 12.34 206.98"/>
          <path class="cls-1" d="M12.93,198.56l-.03,.39v.06h0v-.06c.01-.13,.02-.26,.03-.39h0Z"/>
          <path class="cls-1" d="M12.36,185.66c.75,.93,1.12,2.3,1.12,4.11,0,.29-.05,1.29-.16,3.02-.02,.3-.04,.61-.06,.93l-1.37,19.5v.05s-.6,8.12-.6,8.12c-.04,.29-.11,.49-.21,.61-.11,.13-.32,.19-.64,.19h-2.94c-1.99,0-3.42-.39-4.27-1.18-.85-.78-1.28-1.9-1.28-3.36,0-.71,.05-1.93,.16-3.66,.11-1.73,.25-3.7,.43-5.9,.18-2.21,.36-4.54,.53-7s.36-4.77,.53-6.94c.18-2.17,.32-4.08,.43-5.71s.16-2.76,.16-3.36c0-.53,.28-.8,.86-.8h2.94c2.17,0,3.63,.46,4.38,1.39Z"/>
        </g>
      </g>
      <g>
        <g>
          <path class="cls-1" d="M12.33,160.59l-.02,.39,.03-.39h-.01Z"/>
          <path class="cls-1" d="M12.89,152.62h.01v0Z"/>
          <path class="cls-1" d="M13.01,151.08l-.08,1.09-.03,.39v.06h0v-.06c.01-.13,.02-.26,.03-.39,.03-.37,.05-.74,.08-1.09Z"/>
        </g>
        <g>
          <polygon class="cls-1" points="12.34 160.59 12.31 160.98 12.31 160.98 12.33 160.59 12.34 160.59"/>
          <path class="cls-1" d="M12.93,152.17l-.03,.39v.06h0v-.06c.01-.13,.02-.26,.03-.39h0Z"/>
          <path class="cls-1" d="M12.36,139.27c.75,.93,1.12,2.3,1.12,4.11,0,.29-.05,1.29-.16,3.02-.02,.3-.04,.61-.06,.93l-1.37,19.5v.05s-.6,8.12-.6,8.12c-.04,.29-.11,.49-.21,.61-.11,.13-.32,.19-.64,.19h-2.94c-1.99,0-3.42-.39-4.27-1.18-.85-.78-1.28-1.9-1.28-3.36,0-.71,.05-1.93,.16-3.66,.11-1.73,.25-3.7,.43-5.9,.18-2.21,.36-4.54,.53-7s.36-4.77,.53-6.94c.18-2.17,.32-4.08,.43-5.71s.16-2.76,.16-3.36c0-.53,.28-.8,.86-.8h2.94c2.17,0,3.63,.46,4.38,1.39Z"/>
        </g>
      </g>
      <polygon class="cls-1" points="12.33 160.59 12.34 160.59 12.31 160.98 12.07 164.27 12.31 160.98 12.33 160.59"/>
      <path class="cls-1" d="M12.93,152.17c.03-.37,.05-.74,.08-1.09l-.08,1.09-.03,.39v.06h0v-.06c.01-.13,.02-.26,.03-.39Z"/>
    </g>
    <g class="cls-3">
      <g>
        <g>
          <path class="cls-1" d="M120.47,103.79l-.03,.39-.23,3.29,.24-3.29,.03-.39h-.01Z"/>
          <path class="cls-1" d="M121.14,94.28l-.08,1.09-.03,.39v.06h0v-.06c.01-.13,.02-.26,.03-.39,.03-.37,.05-.74,.08-1.09Z"/>
        </g>
        <g>
          <polygon class="cls-1" points="120.48 103.79 120.45 104.18 120.44 104.18 120.47 103.79 120.48 103.79"/>
          <path class="cls-1" d="M121.06,95.37l-.03,.39v.06h0v-.06c.01-.13,.02-.26,.03-.39h0Z"/>
          <path class="cls-1" d="M120.5,82.46c.75,.93,1.12,2.3,1.12,4.11,0,.29-.05,1.29-.16,3.02-.02,.3-.04,.61-.06,.93l-1.37,19.5v.05s-.6,8.12-.6,8.12c-.04,.29-.11,.49-.21,.61-.11,.13-.32,.19-.64,.19h-2.94c-1.99,0-3.42-.39-4.27-1.18-.85-.78-1.28-1.9-1.28-3.36,0-.71,.05-1.93,.16-3.66,.11-1.73,.25-3.7,.43-5.9,.18-2.21,.36-4.54,.53-7s.36-4.77,.53-6.94c.18-2.17,.32-4.08,.43-5.71s.16-2.76,.16-3.36c0-.53,.28-.8,.86-.8h2.94c2.17,0,3.63,.46,4.38,1.39Z"/>
        </g>
      </g>
      <g>
        <g>
          <path class="cls-1" d="M153.28,103.79l-.03,.39-.23,3.29,.24-3.29,.03-.39h0Z"/>
          <path class="cls-1" d="M153.95,94.28l-.08,1.09-.03,.39v.06h0v-.06c.01-.13,.02-.26,.03-.39,.03-.37,.05-.74,.08-1.09Z"/>
        </g>
        <g>
          <polygon class="cls-1" points="153.29 103.79 153.26 104.18 153.25 104.18 153.28 103.79 153.29 103.79"/>
          <path class="cls-1" d="M153.87,95.37l-.03,.39v.06h0v-.06c.01-.13,.02-.26,.03-.39h0Z"/>
          <path class="cls-1" d="M153.31,82.46c.75,.93,1.12,2.3,1.12,4.11,0,.29-.05,1.29-.16,3.02-.02,.3-.04,.61-.06,.93l-1.37,19.5v.05s-.6,8.12-.6,8.12c-.04,.29-.11,.49-.21,.61-.11,.13-.32,.19-.64,.19h-2.94c-1.99,0-3.42-.39-4.27-1.18-.85-.78-1.28-1.9-1.28-3.36,0-.71,.05-1.93,.16-3.66,.11-1.73,.25-3.7,.43-5.9,.18-2.21,.36-4.54,.53-7s.36-4.77,.53-6.94c.18-2.17,.32-4.08,.43-5.71s.16-2.76,.16-3.36c0-.53,.28-.8,.86-.8h2.94c2.17,0,3.63,.46,4.38,1.39Z"/>
        </g>
      </g>
      <g>
        <g>
          <path class="cls-1" d="M137.33,126.98l-.02,.39-.24,3.29,.25-3.29,.02-.39h-.01Z"/>
          <path class="cls-1" d="M137.89,119.01h.01v0Z"/>
          <path class="cls-1" d="M138.01,117.47l-.08,1.09-.03,.39v.06h0v-.06c.01-.13,.02-.26,.03-.39,.03-.37,.05-.74,.08-1.09Z"/>
        </g>
        <g>
          <polygon class="cls-1" points="137.34 126.98 137.31 127.37 137.31 127.37 137.33 126.98 137.34 126.98"/>
          <path class="cls-1" d="M137.93,118.56l-.03,.39v.06h0v-.06c.01-.13,.02-.26,.03-.39h0Z"/>
          <path class="cls-1" d="M137.36,105.66c.75,.93,1.12,2.3,1.12,4.11,0,.29-.05,1.29-.16,3.02-.02,.3-.04,.61-.06,.93l-1.37,19.5v.05s-.6,8.12-.6,8.12c-.04,.29-.11,.49-.21,.61-.11,.13-.32,.19-.64,.19h-2.94c-1.99,0-3.42-.39-4.27-1.18-.85-.78-1.28-1.9-1.28-3.36,0-.71,.05-1.93,.16-3.66,.11-1.73,.25-3.7,.43-5.9,.18-2.21,.36-4.54,.53-7s.36-4.77,.53-6.94c.18-2.17,.32-4.08,.43-5.71s.16-2.76,.16-3.36c0-.53,.28-.8,.86-.8h2.94c2.17,0,3.63,.46,4.38,1.39Z"/>
        </g>
      </g>
      <g>
        <g>
          <path class="cls-1" d="M137.33,80.59l-.02,.39,.03-.39h-.01Z"/>
          <path class="cls-1" d="M137.89,72.62h.01v0Z"/>
          <path class="cls-1" d="M138.01,71.08l-.08,1.09-.03,.39v.06h0v-.06c.01-.13,.02-.26,.03-.39,.03-.37,.05-.74,.08-1.09Z"/>
        </g>
        <g>
          <polygon class="cls-1" points="137.34 80.59 137.31 80.98 137.31 80.98 137.33 80.59 137.34 80.59"/>
          <path class="cls-1" d="M137.93,72.17l-.03,.39v.06h0v-.06c.01-.13,.02-.26,.03-.39h0Z"/>
          <path class="cls-1" d="M137.36,59.27c.75,.93,1.12,2.3,1.12,4.11,0,.29-.05,1.29-.16,3.02-.02,.3-.04,.61-.06,.93l-1.37,19.5v.05s-.6,8.12-.6,8.12c-.04,.29-.11,.49-.21,.61-.11,.13-.32,.19-.64,.19h-2.94c-1.99,0-3.42-.39-4.27-1.18-.85-.78-1.28-1.9-1.28-3.36,0-.71,.05-1.93,.16-3.66,.11-1.73,.25-3.7,.43-5.9,.18-2.21,.36-4.54,.53-7s.36-4.77,.53-6.94c.18-2.17,.32-4.08,.43-5.71s.16-2.76,.16-3.36c0-.53,.28-.8,.86-.8h2.94c2.17,0,3.63,.46,4.38,1.39Z"/>
        </g>
      </g>
      <polygon class="cls-1" points="137.33 80.59 137.34 80.59 137.31 80.98 137.07 84.27 137.31 80.98 137.33 80.59"/>
      <path class="cls-1" d="M137.93,72.17c.03-.37,.05-.74,.08-1.09l-.08,1.09-.03,.39v.06h0v-.06c.01-.13,.02-.26,.03-.39Z"/>
    </g>
    <g class="cls-3">
      <g>
        <g>
          <path class="cls-1" d="M245.47,183.79l-.03,.39-.23,3.29,.24-3.29,.03-.39h-.01Z"/>
          <path class="cls-1" d="M246.14,174.28l-.08,1.09-.03,.39v.06h0v-.06c.01-.13,.02-.26,.03-.39,.03-.37,.05-.74,.08-1.09Z"/>
        </g>
        <g>
          <polygon class="cls-1" points="245.48 183.79 245.45 184.18 245.44 184.18 245.47 183.79 245.48 183.79"/>
          <path class="cls-1" d="M246.06,175.37l-.03,.39v.06h0v-.06c.01-.13,.02-.26,.03-.39h0Z"/>
          <path class="cls-1" d="M245.5,162.46c.75,.93,1.12,2.3,1.12,4.11,0,.29-.05,1.29-.16,3.02-.02,.3-.04,.61-.06,.93l-1.37,19.5v.05s-.6,8.12-.6,8.12c-.04,.29-.11,.49-.21,.61-.11,.13-.32,.19-.64,.19h-2.94c-1.99,0-3.42-.39-4.27-1.18-.85-.78-1.28-1.9-1.28-3.36,0-.71,.05-1.93,.16-3.66,.11-1.73,.25-3.7,.43-5.9,.18-2.21,.36-4.54,.53-7s.36-4.77,.53-6.94c.18-2.17,.32-4.08,.43-5.71s.16-2.76,.16-3.36c0-.53,.28-.8,.86-.8h2.94c2.17,0,3.63,.46,4.38,1.39Z"/>
        </g>
      </g>
      <g>
        <g>
          <path class="cls-1" d="M278.28,183.79l-.03,.39-.23,3.29,.24-3.29,.03-.39h0Z"/>
          <path class="cls-1" d="M278.95,174.28l-.08,1.09-.03,.39v.06h0v-.06c.01-.13,.02-.26,.03-.39,.03-.37,.05-.74,.08-1.09Z"/>
        </g>
        <g>
          <polygon class="cls-1" points="278.29 183.79 278.26 184.18 278.25 184.18 278.28 183.79 278.29 183.79"/>
          <path class="cls-1" d="M278.87,175.37l-.03,.39v.06h0v-.06c.01-.13,.02-.26,.03-.39h0Z"/>
          <path class="cls-1" d="M278.31,162.46c.75,.93,1.12,2.3,1.12,4.11,0,.29-.05,1.29-.16,3.02-.02,.3-.04,.61-.06,.93l-1.37,19.5v.05s-.6,8.12-.6,8.12c-.04,.29-.11,.49-.21,.61-.11,.13-.32,.19-.64,.19h-2.94c-1.99,0-3.42-.39-4.27-1.18-.85-.78-1.28-1.9-1.28-3.36,0-.71,.05-1.93,.16-3.66,.11-1.73,.25-3.7,.43-5.9,.18-2.21,.36-4.54,.53-7s.36-4.77,.53-6.94c.18-2.17,.32-4.08,.43-5.71s.16-2.76,.16-3.36c0-.53,.28-.8,.86-.8h2.94c2.17,0,3.63,.46,4.38,1.39Z"/>
        </g>
      </g>
      <g>
        <g>
          <path class="cls-1" d="M262.33,206.98l-.02,.39-.24,3.29,.25-3.29,.02-.39h-.01Z"/>
          <path class="cls-1" d="M262.89,199.01h.01v0Z"/>
          <path class="cls-1" d="M263.01,197.47l-.08,1.09-.03,.39v.06h0v-.06c.01-.13,.02-.26,.03-.39,.03-.37,.05-.74,.08-1.09Z"/>
        </g>
        <g>
          <polygon class="cls-1" points="262.34 206.98 262.31 207.37 262.31 207.37 262.33 206.98 262.34 206.98"/>
          <path class="cls-1" d="M262.93,198.56l-.03,.39v.06h0v-.06c.01-.13,.02-.26,.03-.39h0Z"/>
          <path class="cls-1" d="M262.36,185.66c.75,.93,1.12,2.3,1.12,4.11,0,.29-.05,1.29-.16,3.02-.02,.3-.04,.61-.06,.93l-1.37,19.5v.05s-.6,8.12-.6,8.12c-.04,.29-.11,.49-.21,.61-.11,.13-.32,.19-.64,.19h-2.94c-1.99,0-3.42-.39-4.27-1.18-.85-.78-1.28-1.9-1.28-3.36,0-.71,.05-1.93,.16-3.66,.11-1.73,.25-3.7,.43-5.9,.18-2.21,.36-4.54,.53-7s.36-4.77,.53-6.94c.18-2.17,.32-4.08,.43-5.71s.16-2.76,.16-3.36c0-.53,.28-.8,.86-.8h2.94c2.17,0,3.63,.46,4.38,1.39Z"/>
        </g>
      </g>
      <g>
        <g>
          <path class="cls-1" d="M262.33,160.59l-.02,.39,.03-.39h-.01Z"/>
          <path class="cls-1" d="M262.89,152.62h.01v0Z"/>
          <path class="cls-1" d="M263.01,151.08l-.08,1.09-.03,.39v.06h0v-.06c.01-.13,.02-.26,.03-.39,.03-.37,.05-.74,.08-1.09Z"/>
        </g>
        <g>
          <polygon class="cls-1" points="262.34 160.59 262.31 160.98 262.31 160.98 262.33 160.59 262.34 160.59"/>
          <path class="cls-1" d="M262.93,152.17l-.03,.39v.06h0v-.06c.01-.13,.02-.26,.03-.39h0Z"/>
          <path class="cls-1" d="M262.36,139.27c.75,.93,1.12,2.3,1.12,4.11,0,.29-.05,1.29-.16,3.02-.02,.3-.04,.61-.06,.93l-1.37,19.5v.05s-.6,8.12-.6,8.12c-.04,.29-.11,.49-.21,.61-.11,.13-.32,.19-.64,.19h-2.94c-1.99,0-3.42-.39-4.27-1.18-.85-.78-1.28-1.9-1.28-3.36,0-.71,.05-1.93,.16-3.66,.11-1.73,.25-3.7,.43-5.9,.18-2.21,.36-4.54,.53-7s.36-4.77,.53-6.94c.18-2.17,.32-4.08,.43-5.71s.16-2.76,.16-3.36c0-.53,.28-.8,.86-.8h2.94c2.17,0,3.63,.46,4.38,1.39Z"/>
        </g>
      </g>
      <polygon class="cls-1" points="262.33 160.59 262.34 160.59 262.31 160.98 262.07 164.27 262.31 160.98 262.33 160.59"/>
      <path class="cls-1" d="M262.93,152.17c.03-.37,.05-.74,.08-1.09l-.08,1.09-.03,.39v.06h0v-.06c.01-.13,.02-.26,.03-.39Z"/>
    </g>
    <g class="cls-3">
      <g>
        <g>
          <path class="cls-1" d="M370.47,103.79l-.03,.39-.23,3.29,.24-3.29,.03-.39h-.01Z"/>
          <path class="cls-1" d="M371.14,94.28l-.08,1.09-.03,.39v.06h0v-.06c.01-.13,.02-.26,.03-.39,.03-.37,.05-.74,.08-1.09Z"/>
        </g>
        <g>
          <polygon class="cls-1" points="370.48 103.79 370.45 104.18 370.44 104.18 370.47 103.79 370.48 103.79"/>
          <path class="cls-1" d="M371.06,95.37l-.03,.39v.06h0v-.06c.01-.13,.02-.26,.03-.39h0Z"/>
          <path class="cls-1" d="M370.5,82.46c.75,.93,1.12,2.3,1.12,4.11,0,.29-.05,1.29-.16,3.02-.02,.3-.04,.61-.06,.93l-1.37,19.5v.05s-.6,8.12-.6,8.12c-.04,.29-.11,.49-.21,.61-.11,.13-.32,.19-.64,.19h-2.94c-1.99,0-3.42-.39-4.27-1.18-.85-.78-1.28-1.9-1.28-3.36,0-.71,.05-1.93,.16-3.66,.11-1.73,.25-3.7,.43-5.9,.18-2.21,.36-4.54,.53-7s.36-4.77,.53-6.94c.18-2.17,.32-4.08,.43-5.71s.16-2.76,.16-3.36c0-.53,.28-.8,.86-.8h2.94c2.17,0,3.63,.46,4.38,1.39Z"/>
        </g>
      </g>
      <g>
        <g>
          <path class="cls-1" d="M403.28,103.79l-.03,.39-.23,3.29,.24-3.29,.03-.39h0Z"/>
          <path class="cls-1" d="M403.95,94.28l-.08,1.09-.03,.39v.06h0v-.06c.01-.13,.02-.26,.03-.39,.03-.37,.05-.74,.08-1.09Z"/>
        </g>
        <g>
          <polygon class="cls-1" points="403.29 103.79 403.26 104.18 403.25 104.18 403.28 103.79 403.29 103.79"/>
          <path class="cls-1" d="M403.87,95.37l-.03,.39v.06h0v-.06c.01-.13,.02-.26,.03-.39h0Z"/>
          <path class="cls-1" d="M403.31,82.46c.75,.93,1.12,2.3,1.12,4.11,0,.29-.05,1.29-.16,3.02-.02,.3-.04,.61-.06,.93l-1.37,19.5v.05s-.6,8.12-.6,8.12c-.04,.29-.11,.49-.21,.61-.11,.13-.32,.19-.64,.19h-2.94c-1.99,0-3.42-.39-4.27-1.18-.85-.78-1.28-1.9-1.28-3.36,0-.71,.05-1.93,.16-3.66,.11-1.73,.25-3.7,.43-5.9,.18-2.21,.36-4.54,.53-7s.36-4.77,.53-6.94c.18-2.17,.32-4.08,.43-5.71s.16-2.76,.16-3.36c0-.53,.28-.8,.86-.8h2.94c2.17,0,3.63,.46,4.38,1.39Z"/>
        </g>
      </g>
      <g>
        <g>
          <path class="cls-1" d="M387.33,126.98l-.02,.39-.24,3.29,.25-3.29,.02-.39h-.01Z"/>
          <path class="cls-1" d="M387.89,119.01h.01v0Z"/>
          <path class="cls-1" d="M388.01,117.47l-.08,1.09-.03,.39v.06h0v-.06c.01-.13,.02-.26,.03-.39,.03-.37,.05-.74,.08-1.09Z"/>
        </g>
        <g>
          <polygon class="cls-1" points="387.34 126.98 387.31 127.37 387.31 127.37 387.33 126.98 387.34 126.98"/>
          <path class="cls-1" d="M387.93,118.56l-.03,.39v.06h0v-.06c.01-.13,.02-.26,.03-.39h0Z"/>
          <path class="cls-1" d="M387.36,105.66c.75,.93,1.12,2.3,1.12,4.11,0,.29-.05,1.29-.16,3.02-.02,.3-.04,.61-.06,.93l-1.37,19.5v.05s-.6,8.12-.6,8.12c-.04,.29-.11,.49-.21,.61-.11,.13-.32,.19-.64,.19h-2.94c-1.99,0-3.42-.39-4.27-1.18-.85-.78-1.28-1.9-1.28-3.36,0-.71,.05-1.93,.16-3.66,.11-1.73,.25-3.7,.43-5.9,.18-2.21,.36-4.54,.53-7s.36-4.77,.53-6.94c.18-2.17,.32-4.08,.43-5.71s.16-2.76,.16-3.36c0-.53,.28-.8,.86-.8h2.94c2.17,0,3.63,.46,4.38,1.39Z"/>
        </g>
      </g>
      <g>
        <g>
          <path class="cls-1" d="M387.33,80.59l-.02,.39,.03-.39h-.01Z"/>
          <path class="cls-1" d="M387.89,72.62h.01v0Z"/>
          <path class="cls-1" d="M388.01,71.08l-.08,1.09-.03,.39v.06h0v-.06c.01-.13,.02-.26,.03-.39,.03-.37,.05-.74,.08-1.09Z"/>
        </g>
        <g>
          <polygon class="cls-1" points="387.34 80.59 387.31 80.98 387.31 80.98 387.33 80.59 387.34 80.59"/>
          <path class="cls-1" d="M387.93,72.17l-.03,.39v.06h0v-.06c.01-.13,.02-.26,.03-.39h0Z"/>
          <path class="cls-1" d="M387.36,59.27c.75,.93,1.12,2.3,1.12,4.11,0,.29-.05,1.29-.16,3.02-.02,.3-.04,.61-.06,.93l-1.37,19.5v.05s-.6,8.12-.6,8.12c-.04,.29-.11,.49-.21,.61-.11,.13-.32,.19-.64,.19h-2.94c-1.99,0-3.42-.39-4.27-1.18-.85-.78-1.28-1.9-1.28-3.36,0-.71,.05-1.93,.16-3.66,.11-1.73,.25-3.7,.43-5.9,.18-2.21,.36-4.54,.53-7s.36-4.77,.53-6.94c.18-2.17,.32-4.08,.43-5.71s.16-2.76,.16-3.36c0-.53,.28-.8,.86-.8h2.94c2.17,0,3.63,.46,4.38,1.39Z"/>
        </g>
      </g>
      <polygon class="cls-1" points="387.33 80.59 387.34 80.59 387.31 80.98 387.07 84.27 387.31 80.98 387.33 80.59"/>
      <path class="cls-1" d="M387.93,72.17c.03-.37,.05-.74,.08-1.09l-.08,1.09-.03,.39v.06h0v-.06c.01-.13,.02-.26,.03-.39Z"/>
    </g>
    <g class="cls-3">
      <g>
        <g>
          <path class="cls-1" d="M495.47,183.79l-.03,.39-.23,3.29,.24-3.29,.03-.39h0Z"/>
          <path class="cls-1" d="M496.14,174.28l-.08,1.09-.03,.39v.06h0v-.06c.01-.13,.02-.26,.03-.39,.03-.37,.05-.74,.08-1.09Z"/>
        </g>
        <g>
          <polygon class="cls-1" points="495.48 183.79 495.45 184.18 495.44 184.18 495.47 183.79 495.48 183.79"/>
          <path class="cls-1" d="M496.06,175.37l-.03,.39v.06h0v-.06c.01-.13,.02-.26,.03-.39h0Z"/>
          <path class="cls-1" d="M495.5,162.46c.75,.93,1.12,2.3,1.12,4.11,0,.29-.05,1.29-.16,3.02-.02,.3-.04,.61-.06,.93l-1.37,19.5v.05s-.6,8.12-.6,8.12c-.04,.29-.11,.49-.21,.61-.11,.13-.32,.19-.64,.19h-2.94c-1.99,0-3.42-.39-4.27-1.18-.85-.78-1.28-1.9-1.28-3.36,0-.71,.05-1.93,.16-3.66,.11-1.73,.25-3.7,.43-5.9,.18-2.21,.36-4.54,.53-7s.36-4.77,.53-6.94c.18-2.17,.32-4.08,.43-5.71s.16-2.76,.16-3.36c0-.53,.28-.8,.86-.8h2.94c2.17,0,3.63,.46,4.38,1.39Z"/>
        </g>
      </g>
    </g>
  </g>
</svg>