<?xml version="1.0" encoding="UTF-8"?>
<svg id="Layer_2" data-name="Layer 2" xmlns="http://www.w3.org/2000/svg" viewBox="0 0 494.68 500">
  <defs>
    <style>
      .cls-1 {
        fill: #fff;
      }

      .cls-2 {
        opacity: .2;
      }
    </style>
  </defs>
  <g id="Layer_5" data-name="Layer 5">
    <g class="cls-2">
      <g>
        <g>
          <path class="cls-1" d="M26.34,17.12l-.03,.39-.09,1.32,.1-1.32,.03-.39h0Z"/>
          <path class="cls-1" d="M27.01,7.61l-.08,1.09-.03,.39v.06h0v-.06c.01-.13,.02-.26,.03-.39,.03-.37,.05-.74,.08-1.09Z"/>
        </g>
        <g>
          <polygon class="cls-1" points="26.35 17.12 26.32 17.51 26.31 17.51 26.34 17.12 26.35 17.12"/>
          <path class="cls-1" d="M26.93,8.7l-.03,.39v.06h0v-.06c.01-.13,.02-.26,.03-.39h0Z"/>
          <path class="cls-1" d="M27.49,0c-.01,.37-.06,1.35-.16,2.93-.02,.3-.04,.61-.06,.93l-.34,4.84-.03,.45-.56,7.97-.03,.39-.09,1.32-.32,4.52v.06s-.6,8.12-.6,8.12c-.04,.28-.11,.49-.21,.61-.11,.13-.33,.19-.65,.19h-2.93c-2,0-3.42-.39-4.28-1.18-.85-.78-1.28-1.9-1.28-3.36,0-.71,.05-1.93,.16-3.66,.11-1.73,.25-3.69,.43-5.9,.18-2.21,.35-4.54,.53-7,.18-2.46,.36-4.77,.54-6.94,.12-1.57,.24-3,.33-4.29h9.55Z"/>
        </g>
      </g>
      <g>
        <g>
          <path class="cls-1" d="M10.39,40.32l-.02,.38-.24,3.3,.25-3.3,.02-.38h-.01Z"/>
          <path class="cls-1" d="M10.95,32.34h.01v0Z"/>
          <path class="cls-1" d="M11.07,30.8l-.08,1.09-.03,.39v.06h0v-.06c.01-.13,.02-.26,.03-.39,.03-.37,.05-.74,.08-1.09Z"/>
        </g>
        <g>
          <polygon class="cls-1" points="10.4 40.32 10.37 40.7 10.37 40.7 10.39 40.32 10.4 40.32"/>
          <path class="cls-1" d="M10.99,31.9l-.03,.39v.06h0v-.06c.01-.13,.02-.26,.03-.39h0Z"/>
          <path class="cls-1" d="M10.42,18.99c.75,.93,1.12,2.3,1.12,4.11,0,.29-.05,1.29-.16,3.02-.02,.3-.04,.61-.06,.93l-1.37,19.5v.05s-.6,8.12-.6,8.12c-.04,.29-.11,.49-.21,.61-.11,.13-.32,.19-.64,.19h-2.94c-1.99,0-3.42-.39-4.27-1.18C.43,53.57,0,52.45,0,50.99c0-.71,.05-1.93,.16-3.66,.11-1.73,.25-3.7,.43-5.9,.18-2.21,.36-4.54,.53-7,.18-2.46,.36-4.77,.53-6.94,.18-2.17,.32-4.08,.43-5.71,.11-1.64,.16-2.76,.16-3.36,0-.53,.28-.8,.86-.8h2.94c2.17,0,3.63,.46,4.38,1.39Z"/>
        </g>
      </g>
      <path class="cls-1" d="M9.96,0V.16s-.02,.05-.02,.05l-.59,8.12c-.04,.29-.11,.49-.21,.62-.11,.12-.32,.18-.64,.18h-2.94c-2,0-3.42-.39-4.28-1.17-.85-.78-1.28-1.91-1.28-3.37,0-.71,.06-1.93,.16-3.65,.02-.31,.04-.62,.06-.94H9.96Z"/>
    </g>
    <g class="cls-2">
      <g>
        <g>
          <path class="cls-1" d="M243.53,17.12l-.03,.39-.09,1.32,.1-1.32,.03-.39h-.01Z"/>
          <path class="cls-1" d="M244.2,7.61l-.08,1.09-.03,.39v.06h0v-.06c.01-.13,.02-.26,.03-.39,.03-.37,.05-.74,.08-1.09Z"/>
        </g>
        <g>
          <polygon class="cls-1" points="243.54 17.12 243.51 17.51 243.5 17.51 243.53 17.12 243.54 17.12"/>
          <path class="cls-1" d="M244.13,8.7l-.03,.39v.06h0v-.06c.01-.13,.02-.26,.03-.39h0Z"/>
          <path class="cls-1" d="M244.68,0c-.01,.37-.06,1.35-.16,2.93-.02,.3-.04,.61-.06,.93l-.26,3.75-.08,1.09-.03,.45-.56,7.97-.03,.39-.09,1.32-.32,4.52v.06s-.6,8.12-.6,8.12c-.04,.28-.11,.49-.21,.61-.11,.13-.33,.19-.65,.19h-2.93c-2,0-3.42-.39-4.28-1.18-.85-.78-1.28-1.9-1.28-3.36,0-.71,.05-1.93,.16-3.66,.11-1.73,.25-3.69,.43-5.9,.18-2.21,.35-4.54,.53-7,.18-2.46,.36-4.77,.54-6.94,.12-1.57,.24-3,.33-4.29h9.55Z"/>
        </g>
      </g>
      <g>
        <g>
          <path class="cls-1" d="M276.34,17.12l-.03,.39-.09,1.32,.1-1.32,.03-.39h0Z"/>
          <path class="cls-1" d="M277.01,7.61l-.08,1.09-.03,.39v.06h0v-.06c.01-.13,.02-.26,.03-.39,.03-.37,.05-.74,.08-1.09Z"/>
        </g>
        <g>
          <polygon class="cls-1" points="276.35 17.12 276.32 17.51 276.31 17.51 276.34 17.12 276.35 17.12"/>
          <path class="cls-1" d="M276.93,8.7l-.03,.39v.06h0v-.06c.01-.13,.02-.26,.03-.39h0Z"/>
          <path class="cls-1" d="M277.49,0c-.01,.37-.06,1.35-.16,2.93-.02,.3-.04,.61-.06,.93l-.34,4.84-.03,.45-.56,7.97-.03,.39-.09,1.32-.32,4.52v.06s-.6,8.12-.6,8.12c-.04,.28-.11,.49-.21,.61-.11,.13-.33,.19-.65,.19h-2.93c-2,0-3.42-.39-4.28-1.18-.85-.78-1.28-1.9-1.28-3.36,0-.71,.05-1.93,.16-3.66,.11-1.73,.25-3.69,.43-5.9,.18-2.21,.35-4.54,.53-7,.18-2.46,.36-4.77,.54-6.94,.12-1.57,.24-3,.33-4.29h9.55Z"/>
        </g>
      </g>
      <g>
        <g>
          <path class="cls-1" d="M260.39,40.32l-.02,.38-.24,3.3,.25-3.3,.02-.38h-.01Z"/>
          <path class="cls-1" d="M260.95,32.34h.01v0Z"/>
          <path class="cls-1" d="M261.07,30.8l-.08,1.09-.03,.39v.06h0v-.06c.01-.13,.02-.26,.03-.39,.03-.37,.05-.74,.08-1.09Z"/>
        </g>
        <g>
          <polygon class="cls-1" points="260.4 40.32 260.37 40.7 260.37 40.7 260.39 40.32 260.4 40.32"/>
          <path class="cls-1" d="M260.99,31.9l-.03,.39v.06h0v-.06c.01-.13,.02-.26,.03-.39h0Z"/>
          <path class="cls-1" d="M260.42,18.99c.75,.93,1.12,2.3,1.12,4.11,0,.29-.05,1.29-.16,3.02-.02,.3-.04,.61-.06,.93l-1.37,19.5v.05s-.6,8.12-.6,8.12c-.04,.29-.11,.49-.21,.61-.11,.13-.32,.19-.64,.19h-2.94c-1.99,0-3.42-.39-4.27-1.18-.85-.78-1.28-1.9-1.28-3.36,0-.71,.05-1.93,.16-3.66,.11-1.73,.25-3.7,.43-5.9,.18-2.21,.36-4.54,.53-7s.36-4.77,.53-6.94c.18-2.17,.32-4.08,.43-5.71s.16-2.76,.16-3.36c0-.53,.28-.8,.86-.8h2.94c2.17,0,3.63,.46,4.38,1.39Z"/>
        </g>
      </g>
      <path class="cls-1" d="M259.96,0V.16s-.02,.05-.02,.05l-.59,8.12c-.04,.29-.11,.49-.21,.62-.11,.12-.32,.18-.64,.18h-2.94c-2,0-3.42-.39-4.28-1.17-.85-.78-1.28-1.91-1.28-3.37,0-.71,.06-1.93,.16-3.65,.02-.31,.04-.62,.06-.94h9.74Z"/>
    </g>
    <g class="cls-2">
      <g>
        <g>
          <path class="cls-1" d="M493.53,17.12l-.03,.39-.09,1.32,.1-1.32,.03-.39h0Z"/>
          <path class="cls-1" d="M494.2,7.61l-.08,1.09-.03,.39v.06h0v-.06c.01-.13,.02-.26,.03-.39,.03-.37,.05-.74,.08-1.09Z"/>
        </g>
        <g>
          <polygon class="cls-1" points="493.54 17.12 493.51 17.51 493.5 17.51 493.53 17.12 493.54 17.12"/>
          <path class="cls-1" d="M494.13,8.7l-.03,.39v.06h0v-.06c.01-.13,.02-.26,.03-.39h0Z"/>
          <path class="cls-1" d="M494.68,0c0,.37-.06,1.35-.16,2.93-.02,.3-.04,.61-.06,.93l-.26,3.75-.08,1.09-.03,.45-.56,7.97-.03,.39-.09,1.32-.32,4.52v.06s-.6,8.12-.6,8.12c-.04,.28-.11,.49-.21,.61-.11,.13-.33,.19-.65,.19h-2.93c-2,0-3.42-.39-4.28-1.18-.85-.78-1.28-1.9-1.28-3.36,0-.71,.05-1.93,.16-3.66,.11-1.73,.25-3.69,.43-5.9,.18-2.21,.35-4.54,.53-7,.18-2.46,.36-4.77,.54-6.94,.12-1.57,.24-3,.33-4.29h9.55Z"/>
        </g>
      </g>
    </g>
    <g class="cls-2">
      <path class="cls-1" d="M27.49,499.91v.09h-9.55c.03-.5,.06-.97,.09-1.43,.11-1.64,.16-2.76,.16-3.36,0-.54,.29-.8,.86-.8h2.94c2.17,0,3.63,.46,4.38,1.38,.74,.93,1.12,2.3,1.12,4.12Z"/>
      <g>
        <g>
          <path class="cls-1" d="M10.39,493.93l-.02,.38,.03-.38h-.01Z"/>
          <path class="cls-1" d="M10.95,485.95h.01v0Z"/>
          <path class="cls-1" d="M11.07,484.41l-.08,1.09-.03,.39v.06h0v-.06c.01-.13,.02-.26,.03-.39,.03-.37,.05-.74,.08-1.09Z"/>
        </g>
        <g>
          <polygon class="cls-1" points="10.4 493.93 10.37 494.31 10.37 494.31 10.39 493.93 10.4 493.93"/>
          <path class="cls-1" d="M10.99,485.51l-.03,.39v.06h0v-.06c.01-.13,.02-.26,.03-.39h0Z"/>
          <path class="cls-1" d="M11.54,476.71c0,.29-.05,1.29-.16,3.02-.02,.3-.04,.61-.06,.93l-.37,5.29-.56,7.98-.26,3.68-.17,2.39H.22c.1-1.49,.22-3.15,.37-4.97,.18-2.2,.36-4.54,.54-6.99,.17-2.46,.35-4.78,.53-6.95,.18-2.17,.32-4.08,.43-5.71,.1-1.64,.16-2.76,.16-3.37,0-.53,.28-.8,.85-.8h2.94c2.17,0,3.63,.46,4.38,1.39,.75,.92,1.12,2.29,1.12,4.11Z"/>
        </g>
      </g>
      <polygon class="cls-1" points="10.39 493.93 10.4 493.93 10.37 494.31 10.13 497.61 10.37 494.31 10.39 493.93"/>
      <path class="cls-1" d="M10.99,485.51c.03-.37,.05-.74,.08-1.09l-.08,1.09-.03,.39v.06h0v-.06c.01-.13,.02-.26,.03-.39Z"/>
    </g>
    <g class="cls-2">
      <g>
        <g>
          <path class="cls-1" d="M118.53,437.12l-.03,.39-.09,1.32,.1-1.32,.03-.39h-.01Z"/>
          <path class="cls-1" d="M119.2,427.61l-.08,1.09-.03,.39v.06h0v-.06c.01-.13,.02-.26,.03-.39,.03-.37,.05-.74,.08-1.09Z"/>
        </g>
        <g>
          <polygon class="cls-1" points="118.54 437.12 118.51 437.51 118.5 437.51 118.53 437.12 118.54 437.12"/>
          <path class="cls-1" d="M119.13,428.7l-.03,.39v.06h0v-.06c.01-.13,.02-.26,.03-.39h0Z"/>
          <path class="cls-1" d="M118.56,415.79c.75,.93,1.12,2.3,1.12,4.11,0,.29-.05,1.29-.16,3.02-.02,.3-.04,.61-.06,.93l-1.37,19.5v.05s-.6,8.12-.6,8.12c-.04,.29-.11,.49-.21,.61-.11,.13-.32,.19-.64,.19h-2.94c-1.99,0-3.42-.39-4.27-1.18-.85-.78-1.28-1.9-1.28-3.36,0-.71,.05-1.93,.16-3.66,.11-1.73,.25-3.7,.43-5.9,.18-2.21,.36-4.54,.53-7s.36-4.77,.53-6.94c.18-2.17,.32-4.08,.43-5.71s.16-2.76,.16-3.36c0-.53,.28-.8,.86-.8h2.94c2.17,0,3.63,.46,4.38,1.39Z"/>
        </g>
      </g>
      <g>
        <g>
          <path class="cls-1" d="M151.34,437.12l-.03,.39-.09,1.32,.1-1.32,.03-.39h0Z"/>
          <path class="cls-1" d="M152.01,427.61l-.08,1.09-.03,.39v.06h0v-.06c.01-.13,.02-.26,.03-.39,.03-.37,.05-.74,.08-1.09Z"/>
        </g>
        <g>
          <polygon class="cls-1" points="151.35 437.12 151.32 437.51 151.31 437.51 151.34 437.12 151.35 437.12"/>
          <path class="cls-1" d="M151.93,428.7l-.03,.39v.06h0v-.06c.01-.13,.02-.26,.03-.39h0Z"/>
          <path class="cls-1" d="M151.37,415.79c.75,.93,1.12,2.3,1.12,4.11,0,.29-.05,1.29-.16,3.02-.02,.3-.04,.61-.06,.93l-1.37,19.5v.05s-.6,8.12-.6,8.12c-.04,.29-.11,.49-.21,.61-.11,.13-.32,.19-.64,.19h-2.94c-1.99,0-3.42-.39-4.27-1.18-.85-.78-1.28-1.9-1.28-3.36,0-.71,.05-1.93,.16-3.66,.11-1.73,.25-3.7,.43-5.9,.18-2.21,.36-4.54,.53-7,.18-2.46,.36-4.77,.53-6.94,.18-2.17,.32-4.08,.43-5.71s.16-2.76,.16-3.36c0-.53,.28-.8,.86-.8h2.94c2.17,0,3.63,.46,4.38,1.39Z"/>
        </g>
      </g>
      <g>
        <g>
          <path class="cls-1" d="M135.39,460.32l-.02,.38-.24,3.3,.25-3.3,.02-.38h-.01Z"/>
          <path class="cls-1" d="M135.95,452.34h.01v0Z"/>
          <path class="cls-1" d="M136.07,450.8l-.08,1.09-.03,.39v.06h0v-.06c.01-.13,.02-.26,.03-.39,.03-.37,.05-.74,.08-1.09Z"/>
        </g>
        <g>
          <polygon class="cls-1" points="135.4 460.32 135.37 460.7 135.37 460.7 135.39 460.32 135.4 460.32"/>
          <path class="cls-1" d="M135.99,451.9l-.03,.39v.06h0v-.06c.01-.13,.02-.26,.03-.39h0Z"/>
          <path class="cls-1" d="M135.42,438.99c.75,.93,1.12,2.3,1.12,4.11,0,.29-.05,1.29-.16,3.02-.02,.3-.04,.61-.06,.93l-1.37,19.5v.05s-.6,8.12-.6,8.12c-.04,.29-.11,.49-.21,.61-.11,.13-.32,.19-.64,.19h-2.94c-1.99,0-3.42-.39-4.27-1.18-.85-.78-1.28-1.9-1.28-3.36,0-.71,.05-1.93,.16-3.66,.11-1.73,.25-3.7,.43-5.9,.18-2.21,.36-4.54,.53-7s.36-4.77,.53-6.94c.18-2.17,.32-4.08,.43-5.71s.16-2.76,.16-3.36c0-.53,.28-.8,.86-.8h2.94c2.17,0,3.63,.46,4.38,1.39Z"/>
        </g>
      </g>
      <g>
        <g>
          <path class="cls-1" d="M135.39,413.93l-.02,.38,.03-.38h-.01Z"/>
          <path class="cls-1" d="M135.95,405.95h.01v0Z"/>
          <path class="cls-1" d="M136.07,404.41l-.08,1.09-.03,.39v.06h0v-.06c.01-.13,.02-.26,.03-.39,.03-.37,.05-.74,.08-1.09Z"/>
        </g>
        <g>
          <polygon class="cls-1" points="135.4 413.93 135.37 414.31 135.37 414.31 135.39 413.93 135.4 413.93"/>
          <path class="cls-1" d="M135.99,405.51l-.03,.39v.06h0v-.06c.01-.13,.02-.26,.03-.39h0Z"/>
          <path class="cls-1" d="M135.42,392.6c.75,.93,1.12,2.3,1.12,4.11,0,.29-.05,1.29-.16,3.02-.02,.3-.04,.61-.06,.93l-1.37,19.5v.05s-.6,8.12-.6,8.12c-.04,.29-.11,.49-.21,.61-.11,.13-.32,.19-.64,.19h-2.94c-1.99,0-3.42-.39-4.27-1.18-.85-.78-1.28-1.9-1.28-3.36,0-.71,.05-1.93,.16-3.66,.11-1.73,.25-3.7,.43-5.9,.18-2.21,.36-4.54,.53-7s.36-4.77,.53-6.94c.18-2.17,.32-4.08,.43-5.71s.16-2.76,.16-3.36c0-.53,.28-.8,.86-.8h2.94c2.17,0,3.63,.46,4.38,1.39Z"/>
        </g>
      </g>
      <polygon class="cls-1" points="135.39 413.93 135.4 413.93 135.37 414.31 135.13 417.61 135.37 414.31 135.39 413.93"/>
      <path class="cls-1" d="M135.99,405.51c.03-.37,.05-.74,.08-1.09l-.08,1.09-.03,.39v.06h0v-.06c.01-.13,.02-.26,.03-.39Z"/>
    </g>
    <g class="cls-2">
      <path class="cls-1" d="M244.68,499.91v.09h-9.55c.03-.5,.06-.97,.09-1.43,.11-1.64,.16-2.76,.16-3.36,0-.54,.29-.8,.86-.8h2.94c2.17,0,3.63,.46,4.38,1.38,.74,.93,1.12,2.3,1.12,4.12Z"/>
      <path class="cls-1" d="M277.49,499.91v.09h-9.55c.03-.5,.06-.97,.09-1.43,.11-1.64,.16-2.76,.16-3.36,0-.54,.29-.8,.86-.8h2.94c2.17,0,3.63,.46,4.38,1.38,.74,.93,1.12,2.3,1.12,4.12Z"/>
      <g>
        <g>
          <path class="cls-1" d="M260.39,493.93l-.02,.38,.03-.38h-.01Z"/>
          <path class="cls-1" d="M260.95,485.95h.01v0Z"/>
          <path class="cls-1" d="M261.07,484.41l-.08,1.09-.03,.39v.06h0v-.06c.01-.13,.02-.26,.03-.39,.03-.37,.05-.74,.08-1.09Z"/>
        </g>
        <g>
          <polygon class="cls-1" points="260.4 493.93 260.37 494.31 260.37 494.31 260.39 493.93 260.4 493.93"/>
          <path class="cls-1" d="M260.99,485.51l-.03,.39v.06h0v-.06c.01-.13,.02-.26,.03-.39h0Z"/>
          <path class="cls-1" d="M261.54,476.71c0,.29-.05,1.29-.16,3.02-.02,.3-.04,.61-.06,.93l-.37,5.29-.56,7.98-.26,3.68-.17,2.39h-9.74c.1-1.49,.22-3.15,.37-4.97,.18-2.2,.36-4.54,.54-6.99,.17-2.46,.35-4.78,.53-6.95,.18-2.17,.32-4.08,.43-5.71,.1-1.64,.16-2.76,.16-3.37,0-.53,.28-.8,.85-.8h2.94c2.17,0,3.63,.46,4.38,1.39,.75,.92,1.12,2.29,1.12,4.11Z"/>
        </g>
      </g>
      <polygon class="cls-1" points="260.39 493.93 260.4 493.93 260.37 494.31 260.13 497.61 260.37 494.31 260.39 493.93"/>
      <path class="cls-1" d="M260.99,485.51c.03-.37,.05-.74,.08-1.09l-.08,1.09-.03,.39v.06h0v-.06c.01-.13,.02-.26,.03-.39Z"/>
    </g>
    <g class="cls-2">
      <g>
        <g>
          <path class="cls-1" d="M368.53,437.12l-.03,.39-.09,1.32,.1-1.32,.03-.39h-.01Z"/>
          <path class="cls-1" d="M369.2,427.61l-.08,1.09-.03,.39v.06h0v-.06c.01-.13,.02-.26,.03-.39,.03-.37,.05-.74,.08-1.09Z"/>
        </g>
        <g>
          <polygon class="cls-1" points="368.54 437.12 368.51 437.51 368.5 437.51 368.53 437.12 368.54 437.12"/>
          <path class="cls-1" d="M369.13,428.7l-.03,.39v.06h0v-.06c.01-.13,.02-.26,.03-.39h0Z"/>
          <path class="cls-1" d="M368.56,415.79c.75,.93,1.12,2.3,1.12,4.11,0,.29-.05,1.29-.16,3.02-.02,.3-.04,.61-.06,.93l-1.37,19.5v.05s-.6,8.12-.6,8.12c-.04,.29-.11,.49-.21,.61-.11,.13-.32,.19-.64,.19h-2.94c-1.99,0-3.42-.39-4.27-1.18-.85-.78-1.28-1.9-1.28-3.36,0-.71,.05-1.93,.16-3.66,.11-1.73,.25-3.7,.43-5.9,.18-2.21,.36-4.54,.53-7,.18-2.46,.36-4.77,.53-6.94,.18-2.17,.32-4.08,.43-5.71s.16-2.76,.16-3.36c0-.53,.28-.8,.86-.8h2.94c2.17,0,3.63,.46,4.38,1.39Z"/>
        </g>
      </g>
      <g>
        <g>
          <path class="cls-1" d="M401.34,437.12l-.03,.39-.09,1.32,.1-1.32,.03-.39h0Z"/>
          <path class="cls-1" d="M402.01,427.61l-.08,1.09-.03,.39v.06h0v-.06c.01-.13,.02-.26,.03-.39,.03-.37,.05-.74,.08-1.09Z"/>
        </g>
        <g>
          <polygon class="cls-1" points="401.35 437.12 401.32 437.51 401.31 437.51 401.34 437.12 401.35 437.12"/>
          <path class="cls-1" d="M401.93,428.7l-.03,.39v.06h0v-.06c.01-.13,.02-.26,.03-.39h0Z"/>
          <path class="cls-1" d="M401.37,415.79c.75,.93,1.12,2.3,1.12,4.11,0,.29-.05,1.29-.16,3.02-.02,.3-.04,.61-.06,.93l-1.37,19.5v.05s-.6,8.12-.6,8.12c-.04,.29-.11,.49-.21,.61-.11,.13-.32,.19-.64,.19h-2.94c-1.99,0-3.42-.39-4.27-1.18-.85-.78-1.28-1.9-1.28-3.36,0-.71,.05-1.93,.16-3.66,.11-1.73,.25-3.7,.43-5.9,.18-2.21,.36-4.54,.53-7s.36-4.77,.53-6.94c.18-2.17,.32-4.08,.43-5.71s.16-2.76,.16-3.36c0-.53,.28-.8,.86-.8h2.94c2.17,0,3.63,.46,4.38,1.39Z"/>
        </g>
      </g>
      <g>
        <g>
          <path class="cls-1" d="M385.39,460.32l-.02,.38-.24,3.3,.25-3.3,.02-.38h-.01Z"/>
          <path class="cls-1" d="M385.95,452.34h.01v0Z"/>
          <path class="cls-1" d="M386.07,450.8l-.08,1.09-.03,.39v.06h0v-.06c.01-.13,.02-.26,.03-.39,.03-.37,.05-.74,.08-1.09Z"/>
        </g>
        <g>
          <polygon class="cls-1" points="385.4 460.32 385.37 460.7 385.37 460.7 385.39 460.32 385.4 460.32"/>
          <path class="cls-1" d="M385.99,451.9l-.03,.39v.06h0v-.06c.01-.13,.02-.26,.03-.39h0Z"/>
          <path class="cls-1" d="M385.42,438.99c.75,.93,1.12,2.3,1.12,4.11,0,.29-.05,1.29-.16,3.02-.02,.3-.04,.61-.06,.93l-1.37,19.5v.05s-.6,8.12-.6,8.12c-.04,.29-.11,.49-.21,.61-.11,.13-.32,.19-.64,.19h-2.94c-1.99,0-3.42-.39-4.27-1.18-.85-.78-1.28-1.9-1.28-3.36,0-.71,.05-1.93,.16-3.66,.11-1.73,.25-3.7,.43-5.9,.18-2.21,.36-4.54,.53-7,.18-2.46,.36-4.77,.53-6.94,.18-2.17,.32-4.08,.43-5.71s.16-2.76,.16-3.36c0-.53,.28-.8,.86-.8h2.94c2.17,0,3.63,.46,4.38,1.39Z"/>
        </g>
      </g>
      <g>
        <g>
          <path class="cls-1" d="M385.39,413.93l-.02,.38,.03-.38h-.01Z"/>
          <path class="cls-1" d="M385.95,405.95h.01v0Z"/>
          <path class="cls-1" d="M386.07,404.41l-.08,1.09-.03,.39v.06h0v-.06c.01-.13,.02-.26,.03-.39,.03-.37,.05-.74,.08-1.09Z"/>
        </g>
        <g>
          <polygon class="cls-1" points="385.4 413.93 385.37 414.31 385.37 414.31 385.39 413.93 385.4 413.93"/>
          <path class="cls-1" d="M385.99,405.51l-.03,.39v.06h0v-.06c.01-.13,.02-.26,.03-.39h0Z"/>
          <path class="cls-1" d="M385.42,392.6c.75,.93,1.12,2.3,1.12,4.11,0,.29-.05,1.29-.16,3.02-.02,.3-.04,.61-.06,.93l-1.37,19.5v.05s-.6,8.12-.6,8.12c-.04,.29-.11,.49-.21,.61-.11,.13-.32,.19-.64,.19h-2.94c-1.99,0-3.42-.39-4.27-1.18-.85-.78-1.28-1.9-1.28-3.36,0-.71,.05-1.93,.16-3.66,.11-1.73,.25-3.7,.43-5.9,.18-2.21,.36-4.54,.53-7,.18-2.46,.36-4.77,.53-6.94,.18-2.17,.32-4.08,.43-5.71s.16-2.76,.16-3.36c0-.53,.28-.8,.86-.8h2.94c2.17,0,3.63,.46,4.38,1.39Z"/>
        </g>
      </g>
      <polygon class="cls-1" points="385.39 413.93 385.4 413.93 385.37 414.31 385.13 417.61 385.37 414.31 385.39 413.93"/>
      <path class="cls-1" d="M385.99,405.51c.03-.37,.05-.74,.08-1.09l-.08,1.09-.03,.39v.06h0v-.06c.01-.13,.02-.26,.03-.39Z"/>
    </g>
    <g class="cls-2">
      <path class="cls-1" d="M494.68,499.91v.09h-9.55c.03-.5,.06-.97,.09-1.43,.11-1.64,.16-2.76,.16-3.36,0-.54,.29-.8,.86-.8h2.94c2.17,0,3.63,.46,4.38,1.38,.74,.93,1.12,2.3,1.12,4.12Z"/>
    </g>
    <g class="cls-2">
      <g>
        <g>
          <path class="cls-1" d="M26.34,350.45l-.03,.39-.12,1.79,.13-1.79,.03-.39h0Z"/>
          <path class="cls-1" d="M27.01,340.94l-.08,1.09-.03,.39v.06h0v-.06c.01-.13,.02-.26,.03-.39,.03-.37,.05-.74,.08-1.09Z"/>
        </g>
        <g>
          <polygon class="cls-1" points="26.35 350.45 26.32 350.84 26.31 350.84 26.34 350.45 26.35 350.45"/>
          <path class="cls-1" d="M26.93,342.03l-.03,.39v.06h0v-.06c.01-.13,.02-.26,.03-.39h0Z"/>
          <path class="cls-1" d="M26.37,329.13c.75,.93,1.12,2.3,1.12,4.11,0,.29-.05,1.29-.16,3.02-.02,.3-.04,.61-.06,.93l-1.37,19.5v.05s-.6,8.12-.6,8.12c-.04,.29-.11,.49-.21,.61-.11,.13-.32,.19-.64,.19h-2.94c-1.99,0-3.42-.39-4.27-1.18-.85-.78-1.28-1.9-1.28-3.36,0-.71,.05-1.93,.16-3.66,.11-1.73,.25-3.7,.43-5.9,.18-2.21,.36-4.54,.53-7s.36-4.77,.53-6.94c.18-2.17,.32-4.08,.43-5.71s.16-2.76,.16-3.36c0-.53,.28-.8,.86-.8h2.94c2.17,0,3.63,.46,4.38,1.39Z"/>
        </g>
      </g>
      <g>
        <g>
          <path class="cls-1" d="M10.39,373.65l-.02,.39-.24,3.29,.25-3.29,.02-.39h-.01Z"/>
          <path class="cls-1" d="M10.95,365.68h.01v0Z"/>
          <path class="cls-1" d="M11.07,364.14l-.08,1.09-.03,.39v.06h0v-.06c.01-.13,.02-.26,.03-.39,.03-.37,.05-.74,.08-1.09Z"/>
        </g>
        <g>
          <polygon class="cls-1" points="10.4 373.65 10.37 374.04 10.37 374.04 10.39 373.65 10.4 373.65"/>
          <path class="cls-1" d="M10.99,365.23l-.03,.39v.06h0v-.06c.01-.13,.02-.26,.03-.39h0Z"/>
          <path class="cls-1" d="M10.42,352.32c.75,.93,1.12,2.3,1.12,4.11,0,.29-.05,1.29-.16,3.02-.02,.3-.04,.61-.06,.93l-1.37,19.5v.05s-.6,8.12-.6,8.12c-.04,.29-.11,.49-.21,.61-.11,.13-.32,.19-.64,.19h-2.94c-1.99,0-3.42-.39-4.27-1.18-.85-.78-1.28-1.9-1.28-3.36,0-.71,.05-1.93,.16-3.66,.11-1.73,.25-3.7,.43-5.9,.18-2.21,.36-4.54,.53-7,.18-2.46,.36-4.77,.53-6.94,.18-2.17,.32-4.08,.43-5.71,.11-1.64,.16-2.76,.16-3.36,0-.53,.28-.8,.86-.8h2.94c2.17,0,3.63,.46,4.38,1.39Z"/>
        </g>
      </g>
      <g>
        <g>
          <path class="cls-1" d="M10.39,327.26l-.02,.39,.03-.39h-.01Z"/>
          <path class="cls-1" d="M10.95,319.29h.01v0Z"/>
          <path class="cls-1" d="M11.07,317.75l-.08,1.09-.03,.39v.06h0v-.06c.01-.13,.02-.26,.03-.39,.03-.37,.05-.74,.08-1.09Z"/>
        </g>
        <g>
          <polygon class="cls-1" points="10.4 327.26 10.37 327.65 10.37 327.65 10.39 327.26 10.4 327.26"/>
          <path class="cls-1" d="M10.99,318.84l-.03,.39v.06h0v-.06c.01-.13,.02-.26,.03-.39h0Z"/>
          <path class="cls-1" d="M10.42,305.93c.75,.93,1.12,2.3,1.12,4.11,0,.29-.05,1.29-.16,3.02-.02,.3-.04,.61-.06,.93l-1.37,19.5v.05s-.6,8.12-.6,8.12c-.04,.29-.11,.49-.21,.61-.11,.13-.32,.19-.64,.19h-2.94c-1.99,0-3.42-.39-4.27-1.18-.85-.78-1.28-1.9-1.28-3.36,0-.71,.05-1.93,.16-3.66,.11-1.73,.25-3.7,.43-5.9,.18-2.21,.36-4.54,.53-7,.18-2.46,.36-4.77,.53-6.94,.18-2.17,.32-4.08,.43-5.71,.11-1.64,.16-2.76,.16-3.36,0-.53,.28-.8,.86-.8h2.94c2.17,0,3.63,.46,4.38,1.39Z"/>
        </g>
      </g>
      <polygon class="cls-1" points="10.39 327.26 10.4 327.26 10.37 327.65 10.13 330.94 10.37 327.65 10.39 327.26"/>
      <path class="cls-1" d="M10.99,318.84c.03-.37,.05-.74,.08-1.09l-.08,1.09-.03,.39v.06h0v-.06c.01-.13,.02-.26,.03-.39Z"/>
    </g>
    <g class="cls-2">
      <g>
        <g>
          <path class="cls-1" d="M118.53,270.45l-.03,.39-.12,1.79,.13-1.79,.03-.39h-.01Z"/>
          <path class="cls-1" d="M119.2,260.94l-.08,1.09-.03,.39v.06h0v-.06c.01-.13,.02-.26,.03-.39,.03-.37,.05-.74,.08-1.09Z"/>
        </g>
        <g>
          <polygon class="cls-1" points="118.54 270.45 118.51 270.84 118.5 270.84 118.53 270.45 118.54 270.45"/>
          <path class="cls-1" d="M119.13,262.03l-.03,.39v.06h0v-.06c.01-.13,.02-.26,.03-.39h0Z"/>
          <path class="cls-1" d="M118.56,249.13c.75,.93,1.12,2.3,1.12,4.11,0,.29-.05,1.29-.16,3.02-.02,.3-.04,.61-.06,.93l-1.37,19.5v.05s-.6,8.12-.6,8.12c-.04,.29-.11,.49-.21,.61-.11,.13-.32,.19-.64,.19h-2.94c-1.99,0-3.42-.39-4.27-1.18-.85-.78-1.28-1.9-1.28-3.36,0-.71,.05-1.93,.16-3.66,.11-1.73,.25-3.7,.43-5.9,.18-2.21,.36-4.54,.53-7s.36-4.77,.53-6.94c.18-2.17,.32-4.08,.43-5.71s.16-2.76,.16-3.36c0-.53,.28-.8,.86-.8h2.94c2.17,0,3.63,.46,4.38,1.39Z"/>
        </g>
      </g>
      <g>
        <g>
          <path class="cls-1" d="M151.34,270.45l-.03,.39-.12,1.79,.13-1.79,.03-.39h0Z"/>
          <path class="cls-1" d="M152.01,260.94l-.08,1.09-.03,.39v.06h0v-.06c.01-.13,.02-.26,.03-.39,.03-.37,.05-.74,.08-1.09Z"/>
        </g>
        <g>
          <polygon class="cls-1" points="151.35 270.45 151.32 270.84 151.31 270.84 151.34 270.45 151.35 270.45"/>
          <path class="cls-1" d="M151.93,262.03l-.03,.39v.06h0v-.06c.01-.13,.02-.26,.03-.39h0Z"/>
          <path class="cls-1" d="M151.37,249.13c.75,.93,1.12,2.3,1.12,4.11,0,.29-.05,1.29-.16,3.02-.02,.3-.04,.61-.06,.93l-1.37,19.5v.05s-.6,8.12-.6,8.12c-.04,.29-.11,.49-.21,.61-.11,.13-.32,.19-.64,.19h-2.94c-1.99,0-3.42-.39-4.27-1.18-.85-.78-1.28-1.9-1.28-3.36,0-.71,.05-1.93,.16-3.66,.11-1.73,.25-3.7,.43-5.9,.18-2.21,.36-4.54,.53-7,.18-2.46,.36-4.77,.53-6.94,.18-2.17,.32-4.08,.43-5.71s.16-2.76,.16-3.36c0-.53,.28-.8,.86-.8h2.94c2.17,0,3.63,.46,4.38,1.39Z"/>
        </g>
      </g>
      <g>
        <g>
          <path class="cls-1" d="M135.39,293.65l-.02,.39-.24,3.29,.25-3.29,.02-.39h-.01Z"/>
          <path class="cls-1" d="M135.95,285.68h.01v0Z"/>
          <path class="cls-1" d="M136.07,284.14l-.08,1.09-.03,.39v.06h0v-.06c.01-.13,.02-.26,.03-.39,.03-.37,.05-.74,.08-1.09Z"/>
        </g>
        <g>
          <polygon class="cls-1" points="135.4 293.65 135.37 294.04 135.37 294.04 135.39 293.65 135.4 293.65"/>
          <path class="cls-1" d="M135.99,285.23l-.03,.39v.06h0v-.06c.01-.13,.02-.26,.03-.39h0Z"/>
          <path class="cls-1" d="M135.42,272.32c.75,.93,1.12,2.3,1.12,4.11,0,.29-.05,1.29-.16,3.02-.02,.3-.04,.61-.06,.93l-1.37,19.5v.05s-.6,8.12-.6,8.12c-.04,.29-.11,.49-.21,.61-.11,.13-.32,.19-.64,.19h-2.94c-1.99,0-3.42-.39-4.27-1.18-.85-.78-1.28-1.9-1.28-3.36,0-.71,.05-1.93,.16-3.66,.11-1.73,.25-3.7,.43-5.9,.18-2.21,.36-4.54,.53-7s.36-4.77,.53-6.94c.18-2.17,.32-4.08,.43-5.71s.16-2.76,.16-3.36c0-.53,.28-.8,.86-.8h2.94c2.17,0,3.63,.46,4.38,1.39Z"/>
        </g>
      </g>
      <g>
        <g>
          <path class="cls-1" d="M135.39,247.26l-.02,.39,.03-.39h-.01Z"/>
          <path class="cls-1" d="M135.95,239.29h.01v0Z"/>
          <path class="cls-1" d="M136.07,237.75l-.08,1.09-.03,.39v.06h0v-.06c.01-.13,.02-.26,.03-.39,.03-.37,.05-.74,.08-1.09Z"/>
        </g>
        <g>
          <polygon class="cls-1" points="135.4 247.26 135.37 247.65 135.37 247.65 135.39 247.26 135.4 247.26"/>
          <path class="cls-1" d="M135.99,238.84l-.03,.39v.06h0v-.06c.01-.13,.02-.26,.03-.39h0Z"/>
          <path class="cls-1" d="M135.42,225.93c.75,.93,1.12,2.3,1.12,4.11,0,.29-.05,1.29-.16,3.02-.02,.3-.04,.61-.06,.93l-1.37,19.5v.05s-.6,8.12-.6,8.12c-.04,.29-.11,.49-.21,.61-.11,.13-.32,.19-.64,.19h-2.94c-1.99,0-3.42-.39-4.27-1.18-.85-.78-1.28-1.9-1.28-3.36,0-.71,.05-1.93,.16-3.66,.11-1.73,.25-3.7,.43-5.9,.18-2.21,.36-4.54,.53-7s.36-4.77,.53-6.94c.18-2.17,.32-4.08,.43-5.71s.16-2.76,.16-3.36c0-.53,.28-.8,.86-.8h2.94c2.17,0,3.63,.46,4.38,1.39Z"/>
        </g>
      </g>
      <polygon class="cls-1" points="135.39 247.26 135.4 247.26 135.37 247.65 135.13 250.94 135.37 247.65 135.39 247.26"/>
      <path class="cls-1" d="M135.99,238.84c.03-.37,.05-.74,.08-1.09l-.08,1.09-.03,.39v.06h0v-.06c.01-.13,.02-.26,.03-.39Z"/>
    </g>
    <g class="cls-2">
      <g>
        <g>
          <path class="cls-1" d="M243.53,350.45l-.03,.39-.12,1.79,.13-1.79,.03-.39h-.01Z"/>
          <path class="cls-1" d="M244.2,340.94l-.08,1.09-.03,.39v.06h0v-.06c.01-.13,.02-.26,.03-.39,.03-.37,.05-.74,.08-1.09Z"/>
        </g>
        <g>
          <polygon class="cls-1" points="243.54 350.45 243.51 350.84 243.5 350.84 243.53 350.45 243.54 350.45"/>
          <path class="cls-1" d="M244.13,342.03l-.03,.39v.06h0v-.06c.01-.13,.02-.26,.03-.39h0Z"/>
          <path class="cls-1" d="M243.56,329.13c.75,.93,1.12,2.3,1.12,4.11,0,.29-.05,1.29-.16,3.02-.02,.3-.04,.61-.06,.93l-1.37,19.5v.05s-.6,8.12-.6,8.12c-.04,.29-.11,.49-.21,.61-.11,.13-.32,.19-.64,.19h-2.94c-1.99,0-3.42-.39-4.27-1.18-.85-.78-1.28-1.9-1.28-3.36,0-.71,.05-1.93,.16-3.66,.11-1.73,.25-3.7,.43-5.9,.18-2.21,.36-4.54,.53-7,.18-2.46,.36-4.77,.53-6.94,.18-2.17,.32-4.08,.43-5.71s.16-2.76,.16-3.36c0-.53,.28-.8,.86-.8h2.94c2.17,0,3.63,.46,4.38,1.39Z"/>
        </g>
      </g>
      <g>
        <g>
          <path class="cls-1" d="M276.34,350.45l-.03,.39-.12,1.79,.13-1.79,.03-.39h0Z"/>
          <path class="cls-1" d="M277.01,340.94l-.08,1.09-.03,.39v.06h0v-.06c.01-.13,.02-.26,.03-.39,.03-.37,.05-.74,.08-1.09Z"/>
        </g>
        <g>
          <polygon class="cls-1" points="276.35 350.45 276.32 350.84 276.31 350.84 276.34 350.45 276.35 350.45"/>
          <path class="cls-1" d="M276.93,342.03l-.03,.39v.06h0v-.06c.01-.13,.02-.26,.03-.39h0Z"/>
          <path class="cls-1" d="M276.37,329.13c.75,.93,1.12,2.3,1.12,4.11,0,.29-.05,1.29-.16,3.02-.02,.3-.04,.61-.06,.93l-1.37,19.5v.05s-.6,8.12-.6,8.12c-.04,.29-.11,.49-.21,.61-.11,.13-.32,.19-.64,.19h-2.94c-1.99,0-3.42-.39-4.27-1.18-.85-.78-1.28-1.9-1.28-3.36,0-.71,.05-1.93,.16-3.66,.11-1.73,.25-3.7,.43-5.9,.18-2.21,.36-4.54,.53-7,.18-2.46,.36-4.77,.53-6.94,.18-2.17,.32-4.08,.43-5.71s.16-2.76,.16-3.36c0-.53,.28-.8,.86-.8h2.94c2.17,0,3.63,.46,4.38,1.39Z"/>
        </g>
      </g>
      <g>
        <g>
          <path class="cls-1" d="M260.39,373.65l-.02,.39-.24,3.29,.25-3.29,.02-.39h-.01Z"/>
          <path class="cls-1" d="M260.95,365.68h.01v0Z"/>
          <path class="cls-1" d="M261.07,364.14l-.08,1.09-.03,.39v.06h0v-.06c.01-.13,.02-.26,.03-.39,.03-.37,.05-.74,.08-1.09Z"/>
        </g>
        <g>
          <polygon class="cls-1" points="260.4 373.65 260.37 374.04 260.37 374.04 260.39 373.65 260.4 373.65"/>
          <path class="cls-1" d="M260.99,365.23l-.03,.39v.06h0v-.06c.01-.13,.02-.26,.03-.39h0Z"/>
          <path class="cls-1" d="M260.42,352.32c.75,.93,1.12,2.3,1.12,4.11,0,.29-.05,1.29-.16,3.02-.02,.3-.04,.61-.06,.93l-1.37,19.5v.05s-.6,8.12-.6,8.12c-.04,.29-.11,.49-.21,.61-.11,.13-.32,.19-.64,.19h-2.94c-1.99,0-3.42-.39-4.27-1.18-.85-.78-1.28-1.9-1.28-3.36,0-.71,.05-1.93,.16-3.66,.11-1.73,.25-3.7,.43-5.9,.18-2.21,.36-4.54,.53-7s.36-4.77,.53-6.94c.18-2.17,.32-4.08,.43-5.71s.16-2.76,.16-3.36c0-.53,.28-.8,.86-.8h2.94c2.17,0,3.63,.46,4.38,1.39Z"/>
        </g>
      </g>
      <g>
        <g>
          <path class="cls-1" d="M260.39,327.26l-.02,.39,.03-.39h-.01Z"/>
          <path class="cls-1" d="M260.95,319.29h.01v0Z"/>
          <path class="cls-1" d="M261.07,317.75l-.08,1.09-.03,.39v.06h0v-.06c.01-.13,.02-.26,.03-.39,.03-.37,.05-.74,.08-1.09Z"/>
        </g>
        <g>
          <polygon class="cls-1" points="260.4 327.26 260.37 327.65 260.37 327.65 260.39 327.26 260.4 327.26"/>
          <path class="cls-1" d="M260.99,318.84l-.03,.39v.06h0v-.06c.01-.13,.02-.26,.03-.39h0Z"/>
          <path class="cls-1" d="M260.42,305.93c.75,.93,1.12,2.3,1.12,4.11,0,.29-.05,1.29-.16,3.02-.02,.3-.04,.61-.06,.93l-1.37,19.5v.05s-.6,8.12-.6,8.12c-.04,.29-.11,.49-.21,.61-.11,.13-.32,.19-.64,.19h-2.94c-1.99,0-3.42-.39-4.27-1.18-.85-.78-1.28-1.9-1.28-3.36,0-.71,.05-1.93,.16-3.66,.11-1.73,.25-3.7,.43-5.9,.18-2.21,.36-4.54,.53-7s.36-4.77,.53-6.94c.18-2.17,.32-4.08,.43-5.71s.16-2.76,.16-3.36c0-.53,.28-.8,.86-.8h2.94c2.17,0,3.63,.46,4.38,1.39Z"/>
        </g>
      </g>
      <polygon class="cls-1" points="260.39 327.26 260.4 327.26 260.37 327.65 260.13 330.94 260.37 327.65 260.39 327.26"/>
      <path class="cls-1" d="M260.99,318.84c.03-.37,.05-.74,.08-1.09l-.08,1.09-.03,.39v.06h0v-.06c.01-.13,.02-.26,.03-.39Z"/>
    </g>
    <g class="cls-2">
      <g>
        <g>
          <path class="cls-1" d="M368.53,270.45l-.03,.39-.12,1.79,.13-1.79,.03-.39h-.01Z"/>
          <path class="cls-1" d="M369.2,260.94l-.08,1.09-.03,.39v.06h0v-.06c.01-.13,.02-.26,.03-.39,.03-.37,.05-.74,.08-1.09Z"/>
        </g>
        <g>
          <polygon class="cls-1" points="368.54 270.45 368.51 270.84 368.5 270.84 368.53 270.45 368.54 270.45"/>
          <path class="cls-1" d="M369.13,262.03l-.03,.39v.06h0v-.06c.01-.13,.02-.26,.03-.39h0Z"/>
          <path class="cls-1" d="M368.56,249.13c.75,.93,1.12,2.3,1.12,4.11,0,.29-.05,1.29-.16,3.02-.02,.3-.04,.61-.06,.93l-1.37,19.5v.05s-.6,8.12-.6,8.12c-.04,.29-.11,.49-.21,.61-.11,.13-.32,.19-.64,.19h-2.94c-1.99,0-3.42-.39-4.27-1.18-.85-.78-1.28-1.9-1.28-3.36,0-.71,.05-1.93,.16-3.66,.11-1.73,.25-3.7,.43-5.9,.18-2.21,.36-4.54,.53-7,.18-2.46,.36-4.77,.53-6.94,.18-2.17,.32-4.08,.43-5.71s.16-2.76,.16-3.36c0-.53,.28-.8,.86-.8h2.94c2.17,0,3.63,.46,4.38,1.39Z"/>
        </g>
      </g>
      <g>
        <g>
          <path class="cls-1" d="M401.34,270.45l-.03,.39-.12,1.79,.13-1.79,.03-.39h0Z"/>
          <path class="cls-1" d="M402.01,260.94l-.08,1.09-.03,.39v.06h0v-.06c.01-.13,.02-.26,.03-.39,.03-.37,.05-.74,.08-1.09Z"/>
        </g>
        <g>
          <polygon class="cls-1" points="401.35 270.45 401.32 270.84 401.31 270.84 401.34 270.45 401.35 270.45"/>
          <path class="cls-1" d="M401.93,262.03l-.03,.39v.06h0v-.06c.01-.13,.02-.26,.03-.39h0Z"/>
          <path class="cls-1" d="M401.37,249.13c.75,.93,1.12,2.3,1.12,4.11,0,.29-.05,1.29-.16,3.02-.02,.3-.04,.61-.06,.93l-1.37,19.5v.05s-.6,8.12-.6,8.12c-.04,.29-.11,.49-.21,.61-.11,.13-.32,.19-.64,.19h-2.94c-1.99,0-3.42-.39-4.27-1.18-.85-.78-1.28-1.9-1.28-3.36,0-.71,.05-1.93,.16-3.66,.11-1.73,.25-3.7,.43-5.9,.18-2.21,.36-4.54,.53-7s.36-4.77,.53-6.94c.18-2.17,.32-4.08,.43-5.71s.16-2.76,.16-3.36c0-.53,.28-.8,.86-.8h2.94c2.17,0,3.63,.46,4.38,1.39Z"/>
        </g>
      </g>
      <g>
        <g>
          <path class="cls-1" d="M385.39,293.65l-.02,.39-.24,3.29,.25-3.29,.02-.39h-.01Z"/>
          <path class="cls-1" d="M385.95,285.68h.01v0Z"/>
          <path class="cls-1" d="M386.07,284.14l-.08,1.09-.03,.39v.06h0v-.06c.01-.13,.02-.26,.03-.39,.03-.37,.05-.74,.08-1.09Z"/>
        </g>
        <g>
          <polygon class="cls-1" points="385.4 293.65 385.37 294.04 385.37 294.04 385.39 293.65 385.4 293.65"/>
          <path class="cls-1" d="M385.99,285.23l-.03,.39v.06h0v-.06c.01-.13,.02-.26,.03-.39h0Z"/>
          <path class="cls-1" d="M385.42,272.32c.75,.93,1.12,2.3,1.12,4.11,0,.29-.05,1.29-.16,3.02-.02,.3-.04,.61-.06,.93l-1.37,19.5v.05s-.6,8.12-.6,8.12c-.04,.29-.11,.49-.21,.61-.11,.13-.32,.19-.64,.19h-2.94c-1.99,0-3.42-.39-4.27-1.18-.85-.78-1.28-1.9-1.28-3.36,0-.71,.05-1.93,.16-3.66,.11-1.73,.25-3.7,.43-5.9,.18-2.21,.36-4.54,.53-7,.18-2.46,.36-4.77,.53-6.94,.18-2.17,.32-4.08,.43-5.71s.16-2.76,.16-3.36c0-.53,.28-.8,.86-.8h2.94c2.17,0,3.63,.46,4.38,1.39Z"/>
        </g>
      </g>
      <g>
        <g>
          <path class="cls-1" d="M385.39,247.26l-.02,.39,.03-.39h-.01Z"/>
          <path class="cls-1" d="M385.95,239.29h.01v0Z"/>
          <path class="cls-1" d="M386.07,237.75l-.08,1.09-.03,.39v.06h0v-.06c.01-.13,.02-.26,.03-.39,.03-.37,.05-.74,.08-1.09Z"/>
        </g>
        <g>
          <polygon class="cls-1" points="385.4 247.26 385.37 247.65 385.37 247.65 385.39 247.26 385.4 247.26"/>
          <path class="cls-1" d="M385.99,238.84l-.03,.39v.06h0v-.06c.01-.13,.02-.26,.03-.39h0Z"/>
          <path class="cls-1" d="M385.42,225.93c.75,.93,1.12,2.3,1.12,4.11,0,.29-.05,1.29-.16,3.02-.02,.3-.04,.61-.06,.93l-1.37,19.5v.05s-.6,8.12-.6,8.12c-.04,.29-.11,.49-.21,.61-.11,.13-.32,.19-.64,.19h-2.94c-1.99,0-3.42-.39-4.27-1.18-.85-.78-1.28-1.9-1.28-3.36,0-.71,.05-1.93,.16-3.66,.11-1.73,.25-3.7,.43-5.9,.18-2.21,.36-4.54,.53-7,.18-2.46,.36-4.77,.53-6.94,.18-2.17,.32-4.08,.43-5.71s.16-2.76,.16-3.36c0-.53,.28-.8,.86-.8h2.94c2.17,0,3.63,.46,4.38,1.39Z"/>
        </g>
      </g>
      <polygon class="cls-1" points="385.39 247.26 385.4 247.26 385.37 247.65 385.13 250.94 385.37 247.65 385.39 247.26"/>
      <path class="cls-1" d="M385.99,238.84c.03-.37,.05-.74,.08-1.09l-.08,1.09-.03,.39v.06h0v-.06c.01-.13,.02-.26,.03-.39Z"/>
    </g>
    <g class="cls-2">
      <g>
        <g>
          <path class="cls-1" d="M493.53,350.45l-.03,.39-.12,1.79,.13-1.79,.03-.39h0Z"/>
          <path class="cls-1" d="M494.2,340.94l-.08,1.09-.03,.39v.06h0v-.06c.01-.13,.02-.26,.03-.39,.03-.37,.05-.74,.08-1.09Z"/>
        </g>
        <g>
          <polygon class="cls-1" points="493.54 350.45 493.51 350.84 493.5 350.84 493.53 350.45 493.54 350.45"/>
          <path class="cls-1" d="M494.13,342.03l-.03,.39v.06h0v-.06c.01-.13,.02-.26,.03-.39h0Z"/>
          <path class="cls-1" d="M493.56,329.13c.75,.93,1.12,2.3,1.12,4.11,0,.29-.05,1.29-.16,3.02-.02,.3-.04,.61-.06,.93l-1.37,19.5v.05s-.6,8.12-.6,8.12c-.04,.29-.11,.49-.21,.61-.11,.13-.32,.19-.64,.19h-2.94c-1.99,0-3.42-.39-4.27-1.18-.85-.78-1.28-1.9-1.28-3.36,0-.71,.05-1.93,.16-3.66,.11-1.73,.25-3.7,.43-5.9,.18-2.21,.36-4.54,.53-7s.36-4.77,.53-6.94c.18-2.17,.32-4.08,.43-5.71s.16-2.76,.16-3.36c0-.53,.28-.8,.86-.8h2.94c2.17,0,3.63,.46,4.38,1.39Z"/>
        </g>
      </g>
    </g>
    <g class="cls-2">
      <g>
        <g>
          <path class="cls-1" d="M26.34,183.79l-.03,.39-.23,3.29,.24-3.29,.03-.39h0Z"/>
          <path class="cls-1" d="M27.01,174.28l-.08,1.09-.03,.39v.06h0v-.06c.01-.13,.02-.26,.03-.39,.03-.37,.05-.74,.08-1.09Z"/>
        </g>
        <g>
          <polygon class="cls-1" points="26.35 183.79 26.32 184.18 26.31 184.18 26.34 183.79 26.35 183.79"/>
          <path class="cls-1" d="M26.93,175.37l-.03,.39v.06h0v-.06c.01-.13,.02-.26,.03-.39h0Z"/>
          <path class="cls-1" d="M26.37,162.46c.75,.93,1.12,2.3,1.12,4.11,0,.29-.05,1.29-.16,3.02-.02,.3-.04,.61-.06,.93l-1.37,19.5v.05s-.6,8.12-.6,8.12c-.04,.29-.11,.49-.21,.61-.11,.13-.32,.19-.64,.19h-2.94c-1.99,0-3.42-.39-4.27-1.18-.85-.78-1.28-1.9-1.28-3.36,0-.71,.05-1.93,.16-3.66,.11-1.73,.25-3.7,.43-5.9,.18-2.21,.36-4.54,.53-7s.36-4.77,.53-6.94c.18-2.17,.32-4.08,.43-5.71s.16-2.76,.16-3.36c0-.53,.28-.8,.86-.8h2.94c2.17,0,3.63,.46,4.38,1.39Z"/>
        </g>
      </g>
      <g>
        <g>
          <path class="cls-1" d="M10.39,206.98l-.02,.39-.24,3.29,.25-3.29,.02-.39h-.01Z"/>
          <path class="cls-1" d="M10.95,199.01h.01v0Z"/>
          <path class="cls-1" d="M11.07,197.47l-.08,1.09-.03,.39v.06h0v-.06c.01-.13,.02-.26,.03-.39,.03-.37,.05-.74,.08-1.09Z"/>
        </g>
        <g>
          <polygon class="cls-1" points="10.4 206.98 10.37 207.37 10.37 207.37 10.39 206.98 10.4 206.98"/>
          <path class="cls-1" d="M10.99,198.56l-.03,.39v.06h0v-.06c.01-.13,.02-.26,.03-.39h0Z"/>
          <path class="cls-1" d="M10.42,185.66c.75,.93,1.12,2.3,1.12,4.11,0,.29-.05,1.29-.16,3.02-.02,.3-.04,.61-.06,.93l-1.37,19.5v.05s-.6,8.12-.6,8.12c-.04,.29-.11,.49-.21,.61-.11,.13-.32,.19-.64,.19h-2.94c-1.99,0-3.42-.39-4.27-1.18-.85-.78-1.28-1.9-1.28-3.36,0-.71,.05-1.93,.16-3.66,.11-1.73,.25-3.7,.43-5.9,.18-2.21,.36-4.54,.53-7,.18-2.46,.36-4.77,.53-6.94,.18-2.17,.32-4.08,.43-5.71,.11-1.64,.16-2.76,.16-3.36,0-.53,.28-.8,.86-.8h2.94c2.17,0,3.63,.46,4.38,1.39Z"/>
        </g>
      </g>
      <g>
        <g>
          <path class="cls-1" d="M10.39,160.59l-.02,.39,.03-.39h-.01Z"/>
          <path class="cls-1" d="M10.95,152.62h.01v0Z"/>
          <path class="cls-1" d="M11.07,151.08l-.08,1.09-.03,.39v.06h0v-.06c.01-.13,.02-.26,.03-.39,.03-.37,.05-.74,.08-1.09Z"/>
        </g>
        <g>
          <polygon class="cls-1" points="10.4 160.59 10.37 160.98 10.37 160.98 10.39 160.59 10.4 160.59"/>
          <path class="cls-1" d="M10.99,152.17l-.03,.39v.06h0v-.06c.01-.13,.02-.26,.03-.39h0Z"/>
          <path class="cls-1" d="M10.42,139.27c.75,.93,1.12,2.3,1.12,4.11,0,.29-.05,1.29-.16,3.02-.02,.3-.04,.61-.06,.93l-1.37,19.5v.05s-.6,8.12-.6,8.12c-.04,.29-.11,.49-.21,.61-.11,.13-.32,.19-.64,.19h-2.94c-1.99,0-3.42-.39-4.27-1.18-.85-.78-1.28-1.9-1.28-3.36,0-.71,.05-1.93,.16-3.66,.11-1.73,.25-3.7,.43-5.9,.18-2.21,.36-4.54,.53-7,.18-2.46,.36-4.77,.53-6.94,.18-2.17,.32-4.08,.43-5.71,.11-1.64,.16-2.76,.16-3.36,0-.53,.28-.8,.86-.8h2.94c2.17,0,3.63,.46,4.38,1.39Z"/>
        </g>
      </g>
      <polygon class="cls-1" points="10.39 160.59 10.4 160.59 10.37 160.98 10.13 164.27 10.37 160.98 10.39 160.59"/>
      <path class="cls-1" d="M10.99,152.17c.03-.37,.05-.74,.08-1.09l-.08,1.09-.03,.39v.06h0v-.06c.01-.13,.02-.26,.03-.39Z"/>
    </g>
    <g class="cls-2">
      <g>
        <g>
          <path class="cls-1" d="M118.53,103.79l-.03,.39-.23,3.29,.24-3.29,.03-.39h-.01Z"/>
          <path class="cls-1" d="M119.2,94.28l-.08,1.09-.03,.39v.06h0v-.06c.01-.13,.02-.26,.03-.39,.03-.37,.05-.74,.08-1.09Z"/>
        </g>
        <g>
          <polygon class="cls-1" points="118.54 103.79 118.51 104.18 118.5 104.18 118.53 103.79 118.54 103.79"/>
          <path class="cls-1" d="M119.13,95.37l-.03,.39v.06h0v-.06c.01-.13,.02-.26,.03-.39h0Z"/>
          <path class="cls-1" d="M118.56,82.46c.75,.93,1.12,2.3,1.12,4.11,0,.29-.05,1.29-.16,3.02-.02,.3-.04,.61-.06,.93l-1.37,19.5v.05s-.6,8.12-.6,8.12c-.04,.29-.11,.49-.21,.61-.11,.13-.32,.19-.64,.19h-2.94c-1.99,0-3.42-.39-4.27-1.18-.85-.78-1.28-1.9-1.28-3.36,0-.71,.05-1.93,.16-3.66,.11-1.73,.25-3.7,.43-5.9,.18-2.21,.36-4.54,.53-7s.36-4.77,.53-6.94c.18-2.17,.32-4.08,.43-5.71s.16-2.76,.16-3.36c0-.53,.28-.8,.86-.8h2.94c2.17,0,3.63,.46,4.38,1.39Z"/>
        </g>
      </g>
      <g>
        <g>
          <path class="cls-1" d="M151.34,103.79l-.03,.39-.23,3.29,.24-3.29,.03-.39h0Z"/>
          <path class="cls-1" d="M152.01,94.28l-.08,1.09-.03,.39v.06h0v-.06c.01-.13,.02-.26,.03-.39,.03-.37,.05-.74,.08-1.09Z"/>
        </g>
        <g>
          <polygon class="cls-1" points="151.35 103.79 151.32 104.18 151.31 104.18 151.34 103.79 151.35 103.79"/>
          <path class="cls-1" d="M151.93,95.37l-.03,.39v.06h0v-.06c.01-.13,.02-.26,.03-.39h0Z"/>
          <path class="cls-1" d="M151.37,82.46c.75,.93,1.12,2.3,1.12,4.11,0,.29-.05,1.29-.16,3.02-.02,.3-.04,.61-.06,.93l-1.37,19.5v.05s-.6,8.12-.6,8.12c-.04,.29-.11,.49-.21,.61-.11,.13-.32,.19-.64,.19h-2.94c-1.99,0-3.42-.39-4.27-1.18-.85-.78-1.28-1.9-1.28-3.36,0-.71,.05-1.93,.16-3.66,.11-1.73,.25-3.7,.43-5.9,.18-2.21,.36-4.54,.53-7,.18-2.46,.36-4.77,.53-6.94,.18-2.17,.32-4.08,.43-5.71s.16-2.76,.16-3.36c0-.53,.28-.8,.86-.8h2.94c2.17,0,3.63,.46,4.38,1.39Z"/>
        </g>
      </g>
      <g>
        <g>
          <path class="cls-1" d="M135.39,126.98l-.02,.39-.24,3.29,.25-3.29,.02-.39h-.01Z"/>
          <path class="cls-1" d="M135.95,119.01h.01v0Z"/>
          <path class="cls-1" d="M136.07,117.47l-.08,1.09-.03,.39v.06h0v-.06c.01-.13,.02-.26,.03-.39,.03-.37,.05-.74,.08-1.09Z"/>
        </g>
        <g>
          <polygon class="cls-1" points="135.4 126.98 135.37 127.37 135.37 127.37 135.39 126.98 135.4 126.98"/>
          <path class="cls-1" d="M135.99,118.56l-.03,.39v.06h0v-.06c.01-.13,.02-.26,.03-.39h0Z"/>
          <path class="cls-1" d="M135.42,105.66c.75,.93,1.12,2.3,1.12,4.11,0,.29-.05,1.29-.16,3.02-.02,.3-.04,.61-.06,.93l-1.37,19.5v.05s-.6,8.12-.6,8.12c-.04,.29-.11,.49-.21,.61-.11,.13-.32,.19-.64,.19h-2.94c-1.99,0-3.42-.39-4.27-1.18-.85-.78-1.28-1.9-1.28-3.36,0-.71,.05-1.93,.16-3.66,.11-1.73,.25-3.7,.43-5.9,.18-2.21,.36-4.54,.53-7s.36-4.77,.53-6.94c.18-2.17,.32-4.08,.43-5.71s.16-2.76,.16-3.36c0-.53,.28-.8,.86-.8h2.94c2.17,0,3.63,.46,4.38,1.39Z"/>
        </g>
      </g>
      <g>
        <g>
          <path class="cls-1" d="M135.39,80.59l-.02,.39,.03-.39h-.01Z"/>
          <path class="cls-1" d="M135.95,72.62h.01v0Z"/>
          <path class="cls-1" d="M136.07,71.08l-.08,1.09-.03,.39v.06h0v-.06c.01-.13,.02-.26,.03-.39,.03-.37,.05-.74,.08-1.09Z"/>
        </g>
        <g>
          <polygon class="cls-1" points="135.4 80.59 135.37 80.98 135.37 80.98 135.39 80.59 135.4 80.59"/>
          <path class="cls-1" d="M135.99,72.17l-.03,.39v.06h0v-.06c.01-.13,.02-.26,.03-.39h0Z"/>
          <path class="cls-1" d="M135.42,59.27c.75,.93,1.12,2.3,1.12,4.11,0,.29-.05,1.29-.16,3.02-.02,.3-.04,.61-.06,.93l-1.37,19.5v.05s-.6,8.12-.6,8.12c-.04,.29-.11,.49-.21,.61-.11,.13-.32,.19-.64,.19h-2.94c-1.99,0-3.42-.39-4.27-1.18-.85-.78-1.28-1.9-1.28-3.36,0-.71,.05-1.93,.16-3.66,.11-1.73,.25-3.7,.43-5.9,.18-2.21,.36-4.54,.53-7s.36-4.77,.53-6.94c.18-2.17,.32-4.08,.43-5.71s.16-2.76,.16-3.36c0-.53,.28-.8,.86-.8h2.94c2.17,0,3.63,.46,4.38,1.39Z"/>
        </g>
      </g>
      <polygon class="cls-1" points="135.39 80.59 135.4 80.59 135.37 80.98 135.13 84.27 135.37 80.98 135.39 80.59"/>
      <path class="cls-1" d="M135.99,72.17c.03-.37,.05-.74,.08-1.09l-.08,1.09-.03,.39v.06h0v-.06c.01-.13,.02-.26,.03-.39Z"/>
    </g>
    <g class="cls-2">
      <g>
        <g>
          <path class="cls-1" d="M243.53,183.79l-.03,.39-.23,3.29,.24-3.29,.03-.39h-.01Z"/>
          <path class="cls-1" d="M244.2,174.28l-.08,1.09-.03,.39v.06h0v-.06c.01-.13,.02-.26,.03-.39,.03-.37,.05-.74,.08-1.09Z"/>
        </g>
        <g>
          <polygon class="cls-1" points="243.54 183.79 243.51 184.18 243.5 184.18 243.53 183.79 243.54 183.79"/>
          <path class="cls-1" d="M244.13,175.37l-.03,.39v.06h0v-.06c.01-.13,.02-.26,.03-.39h0Z"/>
          <path class="cls-1" d="M243.56,162.46c.75,.93,1.12,2.3,1.12,4.11,0,.29-.05,1.29-.16,3.02-.02,.3-.04,.61-.06,.93l-1.37,19.5v.05s-.6,8.12-.6,8.12c-.04,.29-.11,.49-.21,.61-.11,.13-.32,.19-.64,.19h-2.94c-1.99,0-3.42-.39-4.27-1.18-.85-.78-1.28-1.9-1.28-3.36,0-.71,.05-1.93,.16-3.66,.11-1.73,.25-3.7,.43-5.9,.18-2.21,.36-4.54,.53-7,.18-2.46,.36-4.77,.53-6.94,.18-2.17,.32-4.08,.43-5.71s.16-2.76,.16-3.36c0-.53,.28-.8,.86-.8h2.94c2.17,0,3.63,.46,4.38,1.39Z"/>
        </g>
      </g>
      <g>
        <g>
          <path class="cls-1" d="M276.34,183.79l-.03,.39-.23,3.29,.24-3.29,.03-.39h0Z"/>
          <path class="cls-1" d="M277.01,174.28l-.08,1.09-.03,.39v.06h0v-.06c.01-.13,.02-.26,.03-.39,.03-.37,.05-.74,.08-1.09Z"/>
        </g>
        <g>
          <polygon class="cls-1" points="276.35 183.79 276.32 184.18 276.31 184.18 276.34 183.79 276.35 183.79"/>
          <path class="cls-1" d="M276.93,175.37l-.03,.39v.06h0v-.06c.01-.13,.02-.26,.03-.39h0Z"/>
          <path class="cls-1" d="M276.37,162.46c.75,.93,1.12,2.3,1.12,4.11,0,.29-.05,1.29-.16,3.02-.02,.3-.04,.61-.06,.93l-1.37,19.5v.05s-.6,8.12-.6,8.12c-.04,.29-.11,.49-.21,.61-.11,.13-.32,.19-.64,.19h-2.94c-1.99,0-3.42-.39-4.27-1.18-.85-.78-1.28-1.9-1.28-3.36,0-.71,.05-1.93,.16-3.66,.11-1.73,.25-3.7,.43-5.9,.18-2.21,.36-4.54,.53-7,.18-2.46,.36-4.77,.53-6.94,.18-2.17,.32-4.08,.43-5.71s.16-2.76,.16-3.36c0-.53,.28-.8,.86-.8h2.94c2.17,0,3.63,.46,4.38,1.39Z"/>
        </g>
      </g>
      <g>
        <g>
          <path class="cls-1" d="M260.39,206.98l-.02,.39-.24,3.29,.25-3.29,.02-.39h-.01Z"/>
          <path class="cls-1" d="M260.95,199.01h.01v0Z"/>
          <path class="cls-1" d="M261.07,197.47l-.08,1.09-.03,.39v.06h0v-.06c.01-.13,.02-.26,.03-.39,.03-.37,.05-.74,.08-1.09Z"/>
        </g>
        <g>
          <polygon class="cls-1" points="260.4 206.98 260.37 207.37 260.37 207.37 260.39 206.98 260.4 206.98"/>
          <path class="cls-1" d="M260.99,198.56l-.03,.39v.06h0v-.06c.01-.13,.02-.26,.03-.39h0Z"/>
          <path class="cls-1" d="M260.42,185.66c.75,.93,1.12,2.3,1.12,4.11,0,.29-.05,1.29-.16,3.02-.02,.3-.04,.61-.06,.93l-1.37,19.5v.05s-.6,8.12-.6,8.12c-.04,.29-.11,.49-.21,.61-.11,.13-.32,.19-.64,.19h-2.94c-1.99,0-3.42-.39-4.27-1.18-.85-.78-1.28-1.9-1.28-3.36,0-.71,.05-1.93,.16-3.66,.11-1.73,.25-3.7,.43-5.9,.18-2.21,.36-4.54,.53-7s.36-4.77,.53-6.94c.18-2.17,.32-4.08,.43-5.71s.16-2.76,.16-3.36c0-.53,.28-.8,.86-.8h2.94c2.17,0,3.63,.46,4.38,1.39Z"/>
        </g>
      </g>
      <g>
        <g>
          <path class="cls-1" d="M260.39,160.59l-.02,.39,.03-.39h-.01Z"/>
          <path class="cls-1" d="M260.95,152.62h.01v0Z"/>
          <path class="cls-1" d="M261.07,151.08l-.08,1.09-.03,.39v.06h0v-.06c.01-.13,.02-.26,.03-.39,.03-.37,.05-.74,.08-1.09Z"/>
        </g>
        <g>
          <polygon class="cls-1" points="260.4 160.59 260.37 160.98 260.37 160.98 260.39 160.59 260.4 160.59"/>
          <path class="cls-1" d="M260.99,152.17l-.03,.39v.06h0v-.06c.01-.13,.02-.26,.03-.39h0Z"/>
          <path class="cls-1" d="M260.42,139.27c.75,.93,1.12,2.3,1.12,4.11,0,.29-.05,1.29-.16,3.02-.02,.3-.04,.61-.06,.93l-1.37,19.5v.05s-.6,8.12-.6,8.12c-.04,.29-.11,.49-.21,.61-.11,.13-.32,.19-.64,.19h-2.94c-1.99,0-3.42-.39-4.27-1.18-.85-.78-1.28-1.9-1.28-3.36,0-.71,.05-1.93,.16-3.66,.11-1.73,.25-3.7,.43-5.9,.18-2.21,.36-4.54,.53-7s.36-4.77,.53-6.94c.18-2.17,.32-4.08,.43-5.71s.16-2.76,.16-3.36c0-.53,.28-.8,.86-.8h2.94c2.17,0,3.63,.46,4.38,1.39Z"/>
        </g>
      </g>
      <polygon class="cls-1" points="260.39 160.59 260.4 160.59 260.37 160.98 260.13 164.27 260.37 160.98 260.39 160.59"/>
      <path class="cls-1" d="M260.99,152.17c.03-.37,.05-.74,.08-1.09l-.08,1.09-.03,.39v.06h0v-.06c.01-.13,.02-.26,.03-.39Z"/>
    </g>
    <g class="cls-2">
      <g>
        <g>
          <path class="cls-1" d="M368.53,103.79l-.03,.39-.23,3.29,.24-3.29,.03-.39h-.01Z"/>
          <path class="cls-1" d="M369.2,94.28l-.08,1.09-.03,.39v.06h0v-.06c.01-.13,.02-.26,.03-.39,.03-.37,.05-.74,.08-1.09Z"/>
        </g>
        <g>
          <polygon class="cls-1" points="368.54 103.79 368.51 104.18 368.5 104.18 368.53 103.79 368.54 103.79"/>
          <path class="cls-1" d="M369.13,95.37l-.03,.39v.06h0v-.06c.01-.13,.02-.26,.03-.39h0Z"/>
          <path class="cls-1" d="M368.56,82.46c.75,.93,1.12,2.3,1.12,4.11,0,.29-.05,1.29-.16,3.02-.02,.3-.04,.61-.06,.93l-1.37,19.5v.05s-.6,8.12-.6,8.12c-.04,.29-.11,.49-.21,.61-.11,.13-.32,.19-.64,.19h-2.94c-1.99,0-3.42-.39-4.27-1.18-.85-.78-1.28-1.9-1.28-3.36,0-.71,.05-1.93,.16-3.66,.11-1.73,.25-3.7,.43-5.9,.18-2.21,.36-4.54,.53-7,.18-2.46,.36-4.77,.53-6.94,.18-2.17,.32-4.08,.43-5.71s.16-2.76,.16-3.36c0-.53,.28-.8,.86-.8h2.94c2.17,0,3.63,.46,4.38,1.39Z"/>
        </g>
      </g>
      <g>
        <g>
          <path class="cls-1" d="M401.34,103.79l-.03,.39-.23,3.29,.24-3.29,.03-.39h0Z"/>
          <path class="cls-1" d="M402.01,94.28l-.08,1.09-.03,.39v.06h0v-.06c.01-.13,.02-.26,.03-.39,.03-.37,.05-.74,.08-1.09Z"/>
        </g>
        <g>
          <polygon class="cls-1" points="401.35 103.79 401.32 104.18 401.31 104.18 401.34 103.79 401.35 103.79"/>
          <path class="cls-1" d="M401.93,95.37l-.03,.39v.06h0v-.06c.01-.13,.02-.26,.03-.39h0Z"/>
          <path class="cls-1" d="M401.37,82.46c.75,.93,1.12,2.3,1.12,4.11,0,.29-.05,1.29-.16,3.02-.02,.3-.04,.61-.06,.93l-1.37,19.5v.05s-.6,8.12-.6,8.12c-.04,.29-.11,.49-.21,.61-.11,.13-.32,.19-.64,.19h-2.94c-1.99,0-3.42-.39-4.27-1.18-.85-.78-1.28-1.9-1.28-3.36,0-.71,.05-1.93,.16-3.66,.11-1.73,.25-3.7,.43-5.9,.18-2.21,.36-4.54,.53-7s.36-4.77,.53-6.94c.18-2.17,.32-4.08,.43-5.71s.16-2.76,.16-3.36c0-.53,.28-.8,.86-.8h2.94c2.17,0,3.63,.46,4.38,1.39Z"/>
        </g>
      </g>
      <g>
        <g>
          <path class="cls-1" d="M385.39,126.98l-.02,.39-.24,3.29,.25-3.29,.02-.39h-.01Z"/>
          <path class="cls-1" d="M385.95,119.01h.01v0Z"/>
          <path class="cls-1" d="M386.07,117.47l-.08,1.09-.03,.39v.06h0v-.06c.01-.13,.02-.26,.03-.39,.03-.37,.05-.74,.08-1.09Z"/>
        </g>
        <g>
          <polygon class="cls-1" points="385.4 126.98 385.37 127.37 385.37 127.37 385.39 126.98 385.4 126.98"/>
          <path class="cls-1" d="M385.99,118.56l-.03,.39v.06h0v-.06c.01-.13,.02-.26,.03-.39h0Z"/>
          <path class="cls-1" d="M385.42,105.66c.75,.93,1.12,2.3,1.12,4.11,0,.29-.05,1.29-.16,3.02-.02,.3-.04,.61-.06,.93l-1.37,19.5v.05s-.6,8.12-.6,8.12c-.04,.29-.11,.49-.21,.61-.11,.13-.32,.19-.64,.19h-2.94c-1.99,0-3.42-.39-4.27-1.18-.85-.78-1.28-1.9-1.28-3.36,0-.71,.05-1.93,.16-3.66,.11-1.73,.25-3.7,.43-5.9,.18-2.21,.36-4.54,.53-7,.18-2.46,.36-4.77,.53-6.94,.18-2.17,.32-4.08,.43-5.71s.16-2.76,.16-3.36c0-.53,.28-.8,.86-.8h2.94c2.17,0,3.63,.46,4.38,1.39Z"/>
        </g>
      </g>
      <g>
        <g>
          <path class="cls-1" d="M385.39,80.59l-.02,.39,.03-.39h-.01Z"/>
          <path class="cls-1" d="M385.95,72.62h.01v0Z"/>
          <path class="cls-1" d="M386.07,71.08l-.08,1.09-.03,.39v.06h0v-.06c.01-.13,.02-.26,.03-.39,.03-.37,.05-.74,.08-1.09Z"/>
        </g>
        <g>
          <polygon class="cls-1" points="385.4 80.59 385.37 80.98 385.37 80.98 385.39 80.59 385.4 80.59"/>
          <path class="cls-1" d="M385.99,72.17l-.03,.39v.06h0v-.06c.01-.13,.02-.26,.03-.39h0Z"/>
          <path class="cls-1" d="M385.42,59.27c.75,.93,1.12,2.3,1.12,4.11,0,.29-.05,1.29-.16,3.02-.02,.3-.04,.61-.06,.93l-1.37,19.5v.05s-.6,8.12-.6,8.12c-.04,.29-.11,.49-.21,.61-.11,.13-.32,.19-.64,.19h-2.94c-1.99,0-3.42-.39-4.27-1.18-.85-.78-1.28-1.9-1.28-3.36,0-.71,.05-1.93,.16-3.66,.11-1.73,.25-3.7,.43-5.9,.18-2.21,.36-4.54,.53-7,.18-2.46,.36-4.77,.53-6.94,.18-2.17,.32-4.08,.43-5.71s.16-2.76,.16-3.36c0-.53,.28-.8,.86-.8h2.94c2.17,0,3.63,.46,4.38,1.39Z"/>
        </g>
      </g>
      <polygon class="cls-1" points="385.39 80.59 385.4 80.59 385.37 80.98 385.13 84.27 385.37 80.98 385.39 80.59"/>
      <path class="cls-1" d="M385.99,72.17c.03-.37,.05-.74,.08-1.09l-.08,1.09-.03,.39v.06h0v-.06c.01-.13,.02-.26,.03-.39Z"/>
    </g>
    <g class="cls-2">
      <g>
        <g>
          <path class="cls-1" d="M493.53,183.79l-.03,.39-.23,3.29,.24-3.29,.03-.39h0Z"/>
          <path class="cls-1" d="M494.2,174.28l-.08,1.09-.03,.39v.06h0v-.06c.01-.13,.02-.26,.03-.39,.03-.37,.05-.74,.08-1.09Z"/>
        </g>
        <g>
          <polygon class="cls-1" points="493.54 183.79 493.51 184.18 493.5 184.18 493.53 183.79 493.54 183.79"/>
          <path class="cls-1" d="M494.13,175.37l-.03,.39v.06h0v-.06c.01-.13,.02-.26,.03-.39h0Z"/>
          <path class="cls-1" d="M493.56,162.46c.75,.93,1.12,2.3,1.12,4.11,0,.29-.05,1.29-.16,3.02-.02,.3-.04,.61-.06,.93l-1.37,19.5v.05s-.6,8.12-.6,8.12c-.04,.29-.11,.49-.21,.61-.11,.13-.32,.19-.64,.19h-2.94c-1.99,0-3.42-.39-4.27-1.18-.85-.78-1.28-1.9-1.28-3.36,0-.71,.05-1.93,.16-3.66,.11-1.73,.25-3.7,.43-5.9,.18-2.21,.36-4.54,.53-7s.36-4.77,.53-6.94c.18-2.17,.32-4.08,.43-5.71s.16-2.76,.16-3.36c0-.53,.28-.8,.86-.8h2.94c2.17,0,3.63,.46,4.38,1.39Z"/>
        </g>
      </g>
    </g>
  </g>
</svg>